<svg class="alliants-logo-inline" width="162" height="55" viewBox="0 0 162 55" xmlns="http://www.w3.org/2000/svg">
  <title>Alliants logo</title>
  <path class="logo-fill" fill="{{ include.fill_color }}" d="M20.685 27.674h6.12v26.562h-6.12v-2.78C18.175 53.817 15.478 55 12.59 55c-3.646 0-6.66-1.327-9.043-3.982C1.182 48.308 0 44.928 0 40.873c0-3.98 1.182-7.3 3.547-9.954 2.364-2.655 5.325-3.982 8.88-3.982 3.07 0 5.822 1.272 8.258 3.818v-3.082zm-14.458 13.2c0 2.545.677 4.617 2.03 6.217 1.39 1.62 3.142 2.428 5.254 2.428 2.257 0 4.08-.78 5.47-2.345 1.39-1.618 2.084-3.672 2.084-6.163 0-2.49-.694-4.546-2.084-6.164-1.39-1.58-3.195-2.372-5.415-2.372-2.094 0-3.845.8-5.253 2.4-1.39 1.618-2.085 3.618-2.085 6zM39.19 7.023v47.212H33.1V10.538l6.09-3.513zM51.605 0v54.236h-6.092V3.513L51.604 0zm12.413 27.674v26.562h-6.092V27.674h6.092zM57.005 16.63c0-1.074.388-2 1.164-2.783.775-.78 1.705-1.172 2.788-1.172 1.1 0 2.04.39 2.816 1.172.776.764 1.164 1.7 1.164 2.81 0 1.108-.388 2.054-1.164 2.836-.758.78-1.688 1.172-2.79 1.172-1.1 0-2.04-.39-2.815-1.172-.777-.782-1.165-1.737-1.165-2.864zM89.78 27.673h6.118v26.562h-6.12v-2.78C87.27 53.817 84.572 55 81.684 55c-3.646 0-6.66-1.327-9.043-3.982-2.364-2.71-3.547-6.09-3.547-10.145 0-3.98 1.183-7.3 3.547-9.954 2.365-2.655 5.325-3.982 8.88-3.982 3.07 0 5.822 1.272 8.26 3.818v-3.082zm-14.46 13.2c0 2.545.678 4.617 2.03 6.217 1.39 1.62 3.142 2.428 5.254 2.428 2.256 0 4.08-.78 5.47-2.345 1.39-1.618 2.084-3.672 2.084-6.163 0-2.49-.695-4.546-2.085-6.164-1.39-1.58-3.195-2.372-5.415-2.372-2.094 0-3.845.8-5.253 2.4-1.39 1.618-2.084 3.618-2.084 6zm26.872-13.2h6.12v2.454c2.13-2.127 4.53-3.19 7.2-3.19 3.07 0 5.46.972 7.176 2.918 1.48 1.654 2.22 4.354 2.22 8.1v16.28h-6.12V39.4c0-2.617-.36-4.426-1.082-5.426-.704-1.018-1.985-1.528-3.844-1.528-2.022 0-3.457.673-4.305 2.02-.83 1.326-1.246 3.644-1.246 6.953v12.816h-6.118V27.674zm35.292 5.727v20.836h-6.092V33.4h-2.6v-5.726h2.6v-9.736h6.092v9.736h4.738V33.4h-4.738zm22.81-1.2l-5.036 2.7c-.794-1.635-1.778-2.454-2.95-2.454-.56 0-1.04.187-1.436.56-.397.372-.596.85-.596 1.43 0 1.02 1.174 2.028 3.52 3.028 3.23 1.4 5.406 2.69 6.525 3.873 1.12 1.182 1.68 2.773 1.68 4.772 0 2.563-.94 4.708-2.816 6.436C157.36 54.182 155.16 55 152.578 55c-4.422 0-7.554-2.173-9.395-6.518l5.198-2.427c.723 1.273 1.274 2.082 1.653 2.427.74.69 1.624 1.036 2.653 1.036 2.058 0 3.087-.945 3.087-2.836 0-1.09-.794-2.11-2.383-3.054-.614-.31-1.227-.61-1.84-.9-.615-.29-1.237-.59-1.87-.9-1.768-.873-3.014-1.746-3.736-2.618-.92-1.11-1.38-2.536-1.38-4.282 0-2.31.785-4.218 2.355-5.727 1.606-1.508 3.555-2.262 5.847-2.262 3.376 0 5.885 1.754 7.527 5.263z" fill="#4B76FB" fill-rule="evenodd" />
</svg>
