<?xml version="1.0" encoding="UTF-8"?>
<svg width="227px" height="118px" viewBox="0 0 227 118" version="1.1" xmlns="http://www.w3.org/2000/svg" xmlns:xlink="http://www.w3.org/1999/xlink" style="background: #C6C6C6;">
    <!-- Generator: Sketch 48.2 (47327) - http://www.bohemiancoding.com/sketch -->
    <title>alliants-font--roboto</title>
    <desc>Created with Sketch.</desc>
    <defs></defs>
    <g id="Page-3" stroke="none" stroke-width="1" fill="none" fill-rule="evenodd">
        <g id="alliants-font--roboto" fill="#454545">
            <path d="M71.7907715,46.5092773 L66.2800293,46.5092773 L66.2800293,56 L63.170166,56 L63.170166,32.5390625 L70.9367676,32.5390625 C73.5793589,32.5390625 75.6122976,33.140619 77.0356445,34.34375 C78.4589915,35.546881 79.1706543,37.2978401 79.1706543,39.5966797 C79.1706543,41.0576245 78.7758829,42.330561 77.9863281,43.4155273 C77.1967734,44.5004937 76.0983957,45.3115208 74.6911621,45.8486328 L80.2019043,55.8066406 L80.2019043,56 L76.8825684,56 L71.7907715,46.5092773 Z M66.2800293,43.9794922 L71.0334473,43.9794922 C72.5695878,43.9794922 73.7914994,43.5820352 74.6992188,42.7871094 C75.6069381,41.9921835 76.060791,40.9287176 76.060791,39.5966797 C76.060791,38.1464771 75.6284223,37.0346718 74.7636719,36.2612305 C73.8989215,35.4877891 72.6501546,35.0957032 71.017334,35.0849609 L66.2800293,35.0849609 L66.2800293,43.9794922 Z M82.248291,47.121582 C82.248291,45.4135657 82.583981,43.8774482 83.2553711,42.5131836 C83.9267612,41.148919 84.8613221,40.0961951 86.059082,39.3549805 C87.2568419,38.6137658 88.6237716,38.2431641 90.1599121,38.2431641 C92.5339474,38.2431641 94.4540942,39.0649332 95.9204102,40.7084961 C97.3867261,42.352059 98.119873,44.5380723 98.119873,47.2666016 L98.119873,47.4760742 C98.119873,49.1733483 97.7949251,50.6960382 97.1450195,52.0441895 C96.4951139,53.3923407 95.565924,54.4423791 94.3574219,55.1943359 C93.1489197,55.9462928 91.7605059,56.3222656 90.1921387,56.3222656 C87.8288456,56.3222656 85.9140698,55.5004965 84.4477539,53.8569336 C82.981438,52.2133707 82.248291,50.0380995 82.248291,47.3310547 L82.248291,47.121582 Z M85.2453613,47.4760742 C85.2453613,49.4096776 85.6938432,50.9619082 86.5908203,52.1328125 C87.4877975,53.3037168 88.6882249,53.8891602 90.1921387,53.8891602 C91.7067947,53.8891602 92.9099077,53.2956602 93.8015137,52.1086426 C94.6931197,50.9216249 95.138916,49.259288 95.138916,47.121582 C95.138916,45.2094631 94.6850631,43.659918 93.7773438,42.4729004 C92.8696244,41.2858827 91.6638259,40.6923828 90.1599121,40.6923828 C88.6882251,40.6923828 87.5012252,41.2778262 86.598877,42.4487305 C85.6965287,43.6196348 85.2453613,45.2953993 85.2453613,47.4760742 Z M116.61792,47.4760742 C116.61792,50.14015 116.005621,52.2805095 114.781006,53.8972168 C113.55639,55.5139241 111.912852,56.3222656 109.850342,56.3222656 C107.648182,56.3222656 105.945563,55.5434648 104.742432,53.9858398 L104.597412,56 L101.858154,56 L101.858154,31.25 L104.839111,31.25 L104.839111,40.4829102 C106.042242,38.9897386 107.701894,38.2431641 109.818115,38.2431641 C111.934337,38.2431641 113.596674,39.043449 114.805176,40.644043 C116.013678,42.2446369 116.61792,44.4360212 116.61792,47.2182617 L116.61792,47.4760742 Z M113.636963,47.1376953 C113.636963,45.1074117 113.244877,43.539068 112.460693,42.4326172 C111.67651,41.3261663 110.548591,40.7729492 109.076904,40.7729492 C107.111074,40.7729492 105.698491,41.686026 104.839111,43.512207 L104.839111,51.0532227 C105.752202,52.8794037 107.175527,53.7924805 109.109131,53.7924805 C110.537849,53.7924805 111.649654,53.2392633 112.44458,52.1328125 C113.239506,51.0263617 113.636963,49.3613392 113.636963,47.1376953 Z M119.582764,47.121582 C119.582764,45.4135657 119.918454,43.8774482 120.589844,42.5131836 C121.261234,41.148919 122.195795,40.0961951 123.393555,39.3549805 C124.591315,38.6137658 125.958244,38.2431641 127.494385,38.2431641 C129.86842,38.2431641 131.788567,39.0649332 133.254883,40.7084961 C134.721199,42.352059 135.454346,44.5380723 135.454346,47.2666016 L135.454346,47.4760742 C135.454346,49.1733483 135.129398,50.6960382 134.479492,52.0441895 C133.829587,53.3923407 132.900397,54.4423791 131.691895,55.1943359 C130.483392,55.9462928 129.094979,56.3222656 127.526611,56.3222656 C125.163318,56.3222656 123.248542,55.5004965 121.782227,53.8569336 C120.315911,52.2133707 119.582764,50.0380995 119.582764,47.3310547 L119.582764,47.121582 Z M122.579834,47.4760742 C122.579834,49.4096776 123.028316,50.9619082 123.925293,52.1328125 C124.82227,53.3037168 126.022698,53.8891602 127.526611,53.8891602 C129.041267,53.8891602 130.24438,53.2956602 131.135986,52.1086426 C132.027592,50.9216249 132.473389,49.259288 132.473389,47.121582 C132.473389,45.2094631 132.019536,43.659918 131.111816,42.4729004 C130.204097,41.2858827 128.998299,40.6923828 127.494385,40.6923828 C126.022698,40.6923828 124.835698,41.2778262 123.93335,42.4487305 C123.031001,43.6196348 122.579834,45.2953993 122.579834,47.4760742 Z M143.237061,34.34375 L143.237061,38.5654297 L146.491943,38.5654297 L146.491943,40.8696289 L143.237061,40.8696289 L143.237061,51.6816406 C143.237061,52.3798863 143.382079,52.9035627 143.672119,53.2526855 C143.96216,53.6018084 144.456295,53.7763672 145.154541,53.7763672 C145.498293,53.7763672 145.970944,53.7119147 146.57251,53.5830078 L146.57251,56 C145.788326,56.2148448 145.025638,56.3222656 144.284424,56.3222656 C142.952386,56.3222656 141.948001,55.9194376 141.27124,55.1137695 C140.594479,54.3081014 140.256104,53.1640699 140.256104,51.6816406 L140.256104,40.8696289 L137.081787,40.8696289 L137.081787,38.5654297 L140.256104,38.5654297 L140.256104,34.34375 L143.237061,34.34375 Z M149.182861,47.121582 C149.182861,45.4135657 149.518551,43.8774482 150.189941,42.5131836 C150.861331,41.148919 151.795892,40.0961951 152.993652,39.3549805 C154.191412,38.6137658 155.558342,38.2431641 157.094482,38.2431641 C159.468518,38.2431641 161.388665,39.0649332 162.85498,40.7084961 C164.321296,42.352059 165.054443,44.5380723 165.054443,47.2666016 L165.054443,47.4760742 C165.054443,49.1733483 164.729495,50.6960382 164.07959,52.0441895 C163.429684,53.3923407 162.500494,54.4423791 161.291992,55.1943359 C160.08349,55.9462928 158.695076,56.3222656 157.126709,56.3222656 C154.763416,56.3222656 152.84864,55.5004965 151.382324,53.8569336 C149.916008,52.2133707 149.182861,50.0380995 149.182861,47.3310547 L149.182861,47.121582 Z M152.179932,47.4760742 C152.179932,49.4096776 152.628413,50.9619082 153.525391,52.1328125 C154.422368,53.3037168 155.622795,53.8891602 157.126709,53.8891602 C158.641365,53.8891602 159.844478,53.2956602 160.736084,52.1086426 C161.62769,50.9216249 162.073486,49.259288 162.073486,47.121582 C162.073486,45.2094631 161.619633,43.659918 160.711914,42.4729004 C159.804195,41.2858827 158.598396,40.6923828 157.094482,40.6923828 C155.622795,40.6923828 154.435796,41.2778262 153.533447,42.4487305 C152.631099,43.6196348 152.179932,45.2953993 152.179932,47.4760742 Z" id="Roboto"></path>
            <path d="M65.9521484,89 L65.9521484,78.3359375 L69.6875,78.3359375 C70.9814518,78.3359375 71.9628873,78.5837378 72.6318359,79.0793457 C73.3007846,79.5749536 73.6352539,80.3012647 73.6352539,81.2583008 C73.6352539,81.7807643 73.5009779,82.2409648 73.2324219,82.638916 C72.9638658,83.0368672 72.5903344,83.3286124 72.1118164,83.5141602 C72.6586941,83.6508796 73.089598,83.9267557 73.404541,84.3417969 C73.719484,84.756838 73.8769531,85.2646454 73.8769531,85.8652344 C73.8769531,86.8906301 73.549808,87.6669896 72.8955078,88.1943359 C72.2412077,88.7216823 71.3085998,88.9902343 70.0976562,89 L65.9521484,89 Z M68.1494141,84.3564453 L68.1494141,87.2348633 L70.0317383,87.2348633 C70.549319,87.2348633 70.9533677,87.1115735 71.2438965,86.8649902 C71.5344253,86.618407 71.6796875,86.2778342 71.6796875,85.8432617 C71.6796875,84.8666943 71.1743215,84.3710938 70.1635742,84.3564453 L68.1494141,84.3564453 Z M68.1494141,82.8037109 L69.7753906,82.8037109 C70.8837946,82.7841796 71.4379883,82.3422895 71.4379883,81.4780273 C71.4379883,80.9946265 71.2976088,80.6467296 71.0168457,80.4343262 C70.7360826,80.2219228 70.2929718,80.1157227 69.6875,80.1157227 L68.1494141,80.1157227 L68.1494141,82.8037109 Z M75.0561523,84.9643555 C75.0561523,84.1782187 75.207518,83.4775421 75.5102539,82.8623047 C75.8129898,82.2470672 76.2487765,81.7709978 76.817627,81.434082 C77.3864775,81.0971663 78.0468712,80.9287109 78.7988281,80.9287109 C79.8681694,80.9287109 80.7409634,81.2558561 81.4172363,81.9101562 C82.0935092,82.5644564 82.4707027,83.4531194 82.5488281,84.5761719 L82.5634766,85.1181641 C82.5634766,86.3339905 82.2241245,87.3093225 81.5454102,88.0441895 C80.8666958,88.7790564 79.9560604,89.1464844 78.8134766,89.1464844 C77.6708927,89.1464844 76.7590366,88.7802771 76.0778809,88.0478516 C75.3967251,87.315426 75.0561523,86.3193422 75.0561523,85.0595703 L75.0561523,84.9643555 Z M77.1728516,85.1181641 C77.1728516,85.8701209 77.3144517,86.4450664 77.5976562,86.8430176 C77.8808608,87.2409688 78.2861302,87.4399414 78.8134766,87.4399414 C79.3261744,87.4399414 79.7265611,87.2434102 80.0146484,86.8503418 C80.3027358,86.4572734 80.4467773,85.8286176 80.4467773,84.9643555 C80.4467773,84.2270471 80.3027358,83.6557637 80.0146484,83.2504883 C79.7265611,82.8452128 79.3212917,82.6425781 78.7988281,82.6425781 C78.2812474,82.6425781 77.8808608,82.8439921 77.5976562,83.2468262 C77.3144517,83.6496602 77.1728516,84.2734333 77.1728516,85.1181641 Z M86.1010742,89 L83.9770508,89 L83.9770508,77.75 L86.1010742,77.75 L86.1010742,89 Z M87.5146484,84.9790039 C87.5146484,83.7436462 87.7917453,82.7597693 88.3459473,82.0273438 C88.9001493,81.2949182 89.6581983,80.9287109 90.6201172,80.9287109 C91.3916054,80.9287109 92.0288061,81.216794 92.5317383,81.7929688 L92.5317383,77.75 L94.6557617,77.75 L94.6557617,89 L92.7441406,89 L92.6416016,88.1577148 C92.1142552,88.8168978 91.435551,89.1464844 90.6054688,89.1464844 C89.6728469,89.1464844 88.9245634,88.7790564 88.3605957,88.0441895 C87.796628,87.3093225 87.5146484,86.2876042 87.5146484,84.9790039 Z M89.6313477,85.1328125 C89.6313477,85.8750037 89.7607409,86.4438457 90.0195312,86.8393555 C90.2783216,87.2348653 90.6542944,87.4326172 91.1474609,87.4326172 C91.8017611,87.4326172 92.2631823,87.156741 92.5317383,86.6049805 L92.5317383,83.4775391 C92.2680651,82.9257785 91.8115267,82.6499023 91.1621094,82.6499023 C90.1415965,82.6499023 89.6313477,83.4775308 89.6313477,85.1328125 Z" id="Bold"></path>
            <path d="M117.148926,84.6860352 L114.644043,84.6860352 L114.644043,89 L113.230469,89 L113.230469,78.3359375 L116.760742,78.3359375 C117.96192,78.3359375 118.885983,78.6093723 119.532959,79.15625 C120.179935,79.7031277 120.503418,80.4990182 120.503418,81.5439453 C120.503418,82.2080111 120.323976,82.7866186 119.965088,83.2797852 C119.606199,83.7729517 119.106937,84.1416003 118.467285,84.3857422 L120.972168,88.9121094 L120.972168,89 L119.463379,89 L117.148926,84.6860352 Z M114.644043,83.5361328 L116.804688,83.5361328 C117.502933,83.5361328 118.058348,83.3554706 118.470947,82.9941406 C118.883547,82.6328107 119.089844,82.1494171 119.089844,81.5439453 C119.089844,80.8847623 118.893313,80.3793963 118.500244,80.027832 C118.107176,79.6762678 117.539554,79.4980469 116.797363,79.4931641 L114.644043,79.4931641 L114.644043,83.5361328 Z M125.549805,89.1464844 C124.475581,89.1464844 123.601566,88.7937047 122.927734,88.0881348 C122.253903,87.3825648 121.916992,86.4389708 121.916992,85.2573242 L121.916992,85.0083008 C121.916992,84.222164 122.067137,83.5202668 122.367432,82.9025879 C122.667726,82.284909 123.087644,81.8015154 123.627197,81.4523926 C124.166751,81.1032697 124.751462,80.9287109 125.381348,80.9287109 C126.411626,80.9287109 127.212399,81.268063 127.783691,81.9467773 C128.354983,82.6254917 128.640625,83.5971616 128.640625,84.8618164 L128.640625,85.4257812 L123.271973,85.4257812 C123.291504,86.2070352 123.519773,86.8381324 123.956787,87.3190918 C124.393801,87.8000512 124.949215,88.0405273 125.623047,88.0405273 C126.101565,88.0405273 126.506834,87.9428721 126.838867,87.7475586 C127.1709,87.5522451 127.461425,87.2934586 127.710449,86.9711914 L128.538086,87.6157227 C127.87402,88.6362356 126.877936,89.1464844 125.549805,89.1464844 Z M125.381348,82.0419922 C124.83447,82.0419922 124.37549,82.2409648 124.004395,82.638916 C123.633299,83.0368672 123.403809,83.594723 123.315918,84.3125 L127.285645,84.3125 L127.285645,84.2099609 C127.246582,83.5214809 127.061037,82.988039 126.729004,82.6096191 C126.396971,82.2311993 125.947757,82.0419922 125.381348,82.0419922 Z M129.885742,84.9716797 C129.885742,83.7363219 130.171384,82.7536658 130.742676,82.0236816 C131.313968,81.2936975 132.070796,80.9287109 133.013184,80.9287109 C133.979985,80.9287109 134.734372,81.2705044 135.276367,81.9541016 L135.342285,81.0751953 L136.580078,81.0751953 L136.580078,88.8095703 C136.580078,89.8349661 136.276126,90.6430635 135.668213,91.2338867 C135.0603,91.82471 134.243657,92.1201172 133.218262,92.1201172 C132.64697,92.1201172 132.087893,91.9980481 131.541016,91.7539062 C130.994138,91.5097644 130.576662,91.1752951 130.288574,90.7504883 L130.991699,89.9375 C131.572757,90.655277 132.283199,91.0141602 133.123047,91.0141602 C133.78223,91.0141602 134.296141,90.8286151 134.664795,90.4575195 C135.033449,90.0864239 135.217773,89.5639682 135.217773,88.8901367 L135.217773,88.2089844 C134.675779,88.8339875 133.93604,89.1464844 132.998535,89.1464844 C132.070796,89.1464844 131.320071,88.772953 130.746338,88.0258789 C130.172605,87.2788049 129.885742,86.2607486 129.885742,84.9716797 Z M131.248047,85.1254883 C131.248047,86.0190474 131.431151,86.7209447 131.797363,87.2312012 C132.163576,87.7414576 132.676266,87.996582 133.335449,87.996582 C134.189946,87.996582 134.817381,87.6084023 135.217773,86.8320312 L135.217773,83.2138672 C134.802732,82.4570275 134.18018,82.0786133 133.350098,82.0786133 C132.690915,82.0786133 132.175783,82.3349584 131.804688,82.8476562 C131.433592,83.3603541 131.248047,84.1196239 131.248047,85.1254883 Z M143.516113,88.2163086 C142.988767,88.8364289 142.214849,89.1464844 141.194336,89.1464844 C140.349605,89.1464844 139.706301,88.9011255 139.264404,88.4104004 C138.822508,87.9196753 138.599121,87.1933642 138.594238,86.2314453 L138.594238,81.0751953 L139.949219,81.0751953 L139.949219,86.1948242 C139.949219,87.3960021 140.437495,87.996582 141.414062,87.996582 C142.449224,87.996582 143.137694,87.6108437 143.479492,86.8393555 L143.479492,81.0751953 L144.834473,81.0751953 L144.834473,89 L143.54541,89 L143.516113,88.2163086 Z M148.364746,89 L147.009766,89 L147.009766,77.75 L148.364746,77.75 L148.364746,89 Z M155.425293,89 C155.347168,88.8437492 155.283692,88.5654317 155.234863,88.1650391 C154.604977,88.8193392 153.853032,89.1464844 152.979004,89.1464844 C152.19775,89.1464844 151.556887,88.9255393 151.056396,88.4836426 C150.555906,88.0417458 150.305664,87.4814487 150.305664,86.8027344 C150.305664,85.9775349 150.619382,85.3366722 151.246826,84.880127 C151.874271,84.4235817 152.75683,84.1953125 153.894531,84.1953125 L155.212891,84.1953125 L155.212891,83.5727539 C155.212891,83.0991187 155.07129,82.7219252 154.788086,82.4411621 C154.504881,82.160399 154.087405,82.0200195 153.535645,82.0200195 C153.052244,82.0200195 152.646974,82.1420886 152.319824,82.3862305 C151.992674,82.6303723 151.829102,82.9257795 151.829102,83.2724609 L150.466797,83.2724609 C150.466797,82.8769511 150.607176,82.4948749 150.887939,82.1262207 C151.168703,81.7575665 151.549558,81.4658214 152.030518,81.2509766 C152.511477,81.0361317 153.040036,80.9287109 153.616211,80.9287109 C154.529301,80.9287109 155.244626,81.1569801 155.762207,81.6135254 C156.279788,82.0700706 156.54834,82.6987265 156.567871,83.4995117 L156.567871,87.1469727 C156.567871,87.8745154 156.660644,88.4531229 156.846191,88.8828125 L156.846191,89 L155.425293,89 Z M153.176758,87.9672852 C153.601565,87.9672852 154.004393,87.857423 154.385254,87.6376953 C154.766115,87.4179677 155.041991,87.132326 155.212891,86.7807617 L155.212891,85.1547852 L154.150879,85.1547852 C152.490714,85.1547852 151.660645,85.6406201 151.660645,86.6123047 C151.660645,87.0371115 151.802245,87.3691394 152.085449,87.6083984 C152.368654,87.8476574 152.73242,87.9672852 153.176758,87.9672852 Z M162.522461,82.2910156 C162.317382,82.2568358 162.095216,82.2397461 161.855957,82.2397461 C160.967281,82.2397461 160.364259,82.6181603 160.046875,83.375 L160.046875,89 L158.691895,89 L158.691895,81.0751953 L160.010254,81.0751953 L160.032227,81.9907227 C160.476565,81.2827113 161.106441,80.9287109 161.921875,80.9287109 C162.185548,80.9287109 162.385742,80.9628903 162.522461,81.03125 L162.522461,82.2910156 Z" id="Regular"></path>
        </g>
    </g>
</svg>