<?xml version="1.0" encoding="UTF-8"?>
<svg width="64px" height="64px" viewBox="0 0 64 64" version="1.1" xmlns="http://www.w3.org/2000/svg" xmlns:xlink="http://www.w3.org/1999/xlink">
    <!-- Generator: Sketch 48.2 (47327) - http://www.bohemiancoding.com/sketch -->
    <title>vector/alliants-icon</title>
    <desc>Created with Sketch.</desc>
    <defs></defs>
    <g id="Page-1" stroke="none" stroke-width="1" fill="none" fill-rule="evenodd">
        <g id="alliants-icon">
            <rect id="Rectangle" fill="#4B76FB" x="0" y="0" width="64" height="64" rx="16"></rect>
            <path d="M41.1948052,13 L50,13 L50,51 L41.1948052,51 L41.1948052,47.0349854 C37.5843975,50.4039689 33.7013195,52.0884354 29.5454545,52.0884354 C24.2986751,52.0884354 19.9610561,50.19665 16.5324675,46.4130224 C13.1298531,42.551649 11.4285714,37.7314834 11.4285714,31.952381 C11.4285714,26.2769396 13.1298531,21.547476 16.5324675,17.7638484 C19.9350819,13.9802208 24.1947796,12.0884354 29.3116883,12.0884354 C33.7272948,12.0884354 37.6882942,13.9024762 41.1948052,17.5306122 L41.1948052,13 Z M20.3896104,31.952381 C20.3896104,35.580517 21.3636266,38.5348121 23.3116883,40.8153547 C25.3116983,43.1218126 27.8311536,44.2750243 30.8701299,44.2750243 C34.1168994,44.2750243 36.7402497,43.1606849 38.7402597,40.9319728 C40.7402697,38.6255149 41.7402597,35.6971347 41.7402597,32.1467444 C41.7402597,28.5963541 40.7402697,25.667974 38.7402597,23.361516 C36.7402497,21.1068886 34.1428731,19.9795918 30.9480519,19.9795918 C27.9350499,19.9795918 25.4155945,21.1198461 23.3896104,23.4003887 C21.3896004,25.7068466 20.3896104,28.5574822 20.3896104,31.952381 Z" id="alliants" fill="#FFFFFF"></path>
        </g>
    </g>
</svg>