<?xml version="1.0" encoding="UTF-8"?>
<svg width="227px" height="227px" viewBox="0 0 227 227" version="1.1" xmlns="http://www.w3.org/2000/svg" xmlns:xlink="http://www.w3.org/1999/xlink" style="background: #FFFFFF;">
    <!-- Generator: Sketch 48.2 (47327) - http://www.bohemiancoding.com/sketch -->
    <title>vector/alliants-logo-blue-on-white--square</title>
    <desc>Created with Sketch.</desc>
    <defs></defs>
    <g id="Page-1" stroke="none" stroke-width="1" fill="none" fill-rule="evenodd">
        <g id="alliants-logo-blue-on-white--square" fill="#4B76FB">
            <path d="M49.9622937,114.797907 L56.4589931,114.797907 L56.4589931,143 L49.9622937,143 L49.9622937,140.046598 C47.2984419,142.556037 44.433407,143.810738 41.3671028,143.810738 C37.4958938,143.810738 34.2954869,142.401612 31.765786,139.583319 C29.2552494,136.707116 28,133.116742 28,128.812089 C28,124.584649 29.2552494,121.061836 31.765786,118.243543 C34.2763225,115.42525 37.4192371,114.016124 41.1946241,114.016124 C44.4525722,114.016124 47.3750995,115.36734 49.9622937,118.069813 L49.9622937,114.797907 Z M34.6116853,128.812089 C34.6116853,131.514562 35.3303395,133.715114 36.7676696,135.413811 C38.2433285,137.131811 40.1022475,137.990799 42.3444824,137.990799 C44.7400325,137.990799 46.675608,137.160766 48.1512668,135.500675 C49.6269257,133.782675 50.3647441,131.601426 50.3647441,128.956863 C50.3647441,126.312301 49.6269257,124.131052 48.1512668,122.413051 C46.675608,120.733657 44.7591966,119.893973 42.4019753,119.893973 C40.1789048,119.893973 38.3199858,120.743309 36.8251625,122.442006 C35.3495036,124.160007 34.6116853,126.283346 34.6116853,128.812089 Z M69.6098647,92.874755 L69.6098647,143 L63.1419117,143 L63.1419117,96.6042945 L69.6098647,92.874755 Z M82.7894828,85.4156761 L82.7894828,143 L76.3215298,143 L76.3215298,89.1452156 L82.7894828,85.4156761 Z M95.9691008,114.797907 L95.9691008,143 L89.5011478,143 L89.5011478,114.797907 L95.9691008,114.797907 Z M88.5237683,103.071164 C88.5237683,101.932265 88.9357967,100.947807 89.759866,100.117762 C90.5839352,99.287717 91.570887,98.8727006 92.7207511,98.8727006 C93.8897796,98.8727006 94.8863135,99.287717 95.7103827,100.117762 C96.5344519,100.928504 96.9464804,101.922613 96.9464804,103.100119 C96.9464804,104.277625 96.5344519,105.281386 95.7103827,106.111431 C94.9054779,106.941476 93.918526,107.356492 92.7494976,107.356492 C91.5804691,107.356492 90.5839352,106.941476 89.759866,106.111431 C88.9357967,105.281386 88.5237683,104.267973 88.5237683,103.071164 Z M123.320723,114.797907 L129.817422,114.797907 L129.817422,143 L123.320723,143 L123.320723,140.046598 C120.656871,142.556037 117.791836,143.810738 114.725532,143.810738 C110.854323,143.810738 107.653916,142.401612 105.124215,139.583319 C102.613678,136.707116 101.358429,133.116742 101.358429,128.812089 C101.358429,124.584649 102.613678,121.061836 105.124215,118.243543 C107.634751,115.42525 110.777666,114.016124 114.553053,114.016124 C117.811001,114.016124 120.733528,115.36734 123.320723,118.069813 L123.320723,114.797907 Z M107.970114,128.812089 C107.970114,131.514562 108.688768,133.715114 110.126098,135.413811 C111.601757,137.131811 113.460676,137.990799 115.702911,137.990799 C118.098461,137.990799 120.034037,137.160766 121.509696,135.500675 C122.985355,133.782675 123.723173,131.601426 123.723173,128.956863 C123.723173,126.312301 122.985355,124.131052 121.509696,122.413051 C120.034037,120.733657 118.117625,119.893973 115.760404,119.893973 C113.537334,119.893973 111.678415,120.743309 110.183591,122.442006 C108.707932,124.160007 107.970114,126.283346 107.970114,128.812089 Z M136.500341,114.797907 L142.99704,114.797907 L142.99704,117.40385 C145.258439,115.145355 147.807266,114.016124 150.643598,114.016124 C153.901546,114.016124 156.440791,115.048839 158.261409,117.114301 C159.83289,118.870908 160.618619,121.737417 160.618619,125.713912 L160.618619,143 L154.121919,143 L154.121919,127.248523 C154.121919,124.468837 153.738637,122.54818 152.972061,121.486494 C152.224649,120.405505 150.863997,119.865018 148.890064,119.865018 C146.743651,119.865018 145.220104,120.579232 144.319377,122.007682 C143.437815,123.416829 142.99704,125.877973 142.99704,129.391187 L142.99704,143 L136.500341,143 L136.500341,114.797907 Z M173.970715,120.87844 L173.970715,143 L167.502762,143 L167.502762,120.87844 L164.743102,120.87844 L164.743102,114.797907 L167.502762,114.797907 L167.502762,104.461 L173.970715,104.461 L173.970715,114.797907 L179.001345,114.797907 L179.001345,120.87844 L173.970715,120.87844 Z M198.188973,119.604424 L192.842132,122.470961 C191.998898,120.733657 190.954454,119.865018 189.708768,119.865018 C189.114672,119.865018 188.606823,120.062875 188.185206,120.458594 C187.763589,120.854313 187.552784,121.361019 187.552784,121.978727 C187.552784,123.059717 188.798451,124.131038 191.289823,125.192724 C194.720251,126.679084 197.029527,128.049603 198.21772,129.304322 C199.405912,130.559042 200,132.248062 200,134.371434 C200,137.09321 199.003466,139.370974 197.010368,141.204795 C195.074764,142.942099 192.736742,143.810738 189.996233,143.810738 C185.300955,143.810738 181.975981,141.504019 180.021212,136.890512 L185.540532,134.313524 C186.307108,135.66476 186.891613,136.523748 187.294066,136.890512 C188.079806,137.62404 189.018848,137.990799 190.111219,137.990799 C192.29596,137.990799 193.388315,136.987038 193.388315,134.979487 C193.388315,133.821284 192.545094,132.740311 190.858626,131.736536 C190.207037,131.408378 189.555457,131.089877 188.903867,130.781023 C188.252278,130.472169 187.591116,130.153668 186.920362,129.825511 C185.04225,128.898949 183.719927,127.972401 182.953351,127.045839 C181.975966,125.868333 181.487281,124.35304 181.487281,122.499916 C181.487281,120.048387 182.32092,118.021563 183.988223,116.419383 C185.693855,114.817202 187.763579,114.016124 190.197458,114.016124 C193.781201,114.016124 196.445013,115.878872 198.188973,119.604424 Z" id="alliants"></path>
        </g>
    </g>
</svg>