<?xml version="1.0" encoding="UTF-8"?>
<svg width="163px" height="56px" viewBox="0 0 163 56" version="1.1" xmlns="http://www.w3.org/2000/svg" xmlns:xlink="http://www.w3.org/1999/xlink">
    <!-- Generator: Sketch 48.2 (47327) - http://www.bohemiancoding.com/sketch -->
    <title>vector/alliants-logo-white-on-transparent--inline</title>
    <desc>Created with Sketch.</desc>
    <defs></defs>
    <g id="Page-1" stroke="none" stroke-width="1" fill="none" fill-rule="evenodd">
        <g id="alliants-logo-white-on-transparent--inline" fill="#FFFFFF">
            <path d="M21.4932349,28.4375636 L27.6122192,28.4375636 L27.6122192,55 L21.4932349,55 L21.4932349,52.2183075 C18.9842583,54.5818489 16.2857951,55.7636019 13.3977644,55.7636019 C9.75162575,55.7636019 6.73728897,54.4364024 4.35466368,51.7819636 C1.99008858,49.0729815 0.807818767,45.6913499 0.807818767,41.6369673 C0.807818767,37.6553091 1.99008858,34.3373104 4.35466368,31.6828716 C6.71923878,29.0284327 9.67942579,27.7012333 13.2353135,27.7012333 C16.3038461,27.7012333 19.056459,28.9738903 21.4932349,31.5192426 L21.4932349,28.4375636 Z M7.03510373,41.6369673 C7.03510373,44.1823196 7.71197576,46.2549325 9.06574013,47.8548682 C10.4556049,49.4729851 12.2064472,50.2820313 14.3183196,50.2820313 C16.5745936,50.2820313 18.3976356,49.5002563 19.7875003,47.9366827 C21.1773651,46.3185659 21.872287,44.2641338 21.872287,41.7733248 C21.872287,39.2825158 21.1773651,37.2280837 19.7875003,35.6099669 C18.3976356,34.0282122 16.5926435,33.2373468 14.3724699,33.2373468 C12.2786477,33.2373468 10.5278054,34.0373026 9.11989043,35.6372384 C7.73002568,37.2553552 7.03510373,39.2552448 7.03510373,41.6369673 Z M39.9985053,7.78901347 L39.9985053,55 L33.9065961,55 L33.9065961,11.3017193 L39.9985053,7.78901347 Z M52.4118665,0.763601867 L52.4118665,55 L46.3199573,55 L46.3199573,4.27630767 L52.4118665,0.763601867 Z M64.8252277,28.4375636 L64.8252277,55 L58.7333185,55 L58.7333185,28.4375636 L64.8252277,28.4375636 Z M57.8127633,17.392608 C57.8127633,16.3199239 58.2008366,15.3927023 58.9769948,14.6109155 C59.7531531,13.8291288 60.682724,13.4382412 61.7657355,13.4382412 C62.8667972,13.4382412 63.8053931,13.8291288 64.5815513,14.6109155 C65.3577095,15.3745212 65.7457828,16.3108332 65.7457828,17.4198795 C65.7457828,18.5289259 65.3577095,19.4743283 64.5815513,20.256115 C63.8234433,21.0379018 62.8938723,21.4287893 61.7928107,21.4287893 C60.691749,21.4287893 59.7531531,21.0379018 58.9769948,20.256115 C58.2008366,19.4743283 57.8127633,18.5198355 57.8127633,17.392608 Z M90.5866388,28.4375636 L96.7056232,28.4375636 L96.7056232,55 L90.5866388,55 L90.5866388,52.2183075 C88.0776622,54.5818489 85.379199,55.7636019 82.4911684,55.7636019 C78.8450297,55.7636019 75.8306929,54.4364024 73.4480676,51.7819636 C71.0834925,49.0729815 69.9012227,45.6913499 69.9012227,41.6369673 C69.9012227,37.6553091 71.0834925,34.3373104 73.4480676,31.6828716 C75.8126427,29.0284327 78.7728297,27.7012333 82.3287174,27.7012333 C85.39725,27.7012333 88.1498629,28.9738903 90.5866388,31.5192426 L90.5866388,28.4375636 Z M76.1285076,41.6369673 C76.1285076,44.1823196 76.8053797,46.2549325 78.159144,47.8548682 C79.5490088,49.4729851 81.2998511,50.2820313 83.4117235,50.2820313 C85.6679975,50.2820313 87.4910395,49.5002563 88.8809042,47.9366827 C90.270769,46.3185659 90.9656909,44.2641338 90.9656909,41.7733248 C90.9656909,39.2825158 90.270769,37.2280837 88.8809042,35.6099669 C87.4910395,34.0282122 85.6860474,33.2373468 83.4658738,33.2373468 C81.3720516,33.2373468 79.6212093,34.0373026 78.2132943,35.6372384 C76.8234296,37.2553552 76.1285076,39.2552448 76.1285076,41.6369673 Z M103,28.4375636 L109.118984,28.4375636 L109.118984,30.8919982 C111.248907,28.7648109 113.649546,27.7012333 116.320975,27.7012333 C119.389507,27.7012333 121.781122,28.6739069 123.49589,30.6192832 C124.976006,32.2737622 125.716053,34.9736133 125.716053,38.7189173 L125.716053,55 L119.597068,55 L119.597068,40.1643066 C119.597068,37.5462299 119.23607,35.7372389 118.514062,34.737279 C117.810105,33.7191381 116.52856,33.2100753 114.669391,33.2100753 C112.647769,33.2100753 111.2128,33.8827654 110.364441,35.2281659 C109.534133,36.5553853 109.118984,38.8734393 109.118984,42.1823972 L109.118984,55 L103,55 L103,28.4375636 Z M138.291865,34.1645776 L138.291865,55 L132.199955,55 L132.199955,34.1645776 L129.600741,34.1645776 L129.600741,28.4375636 L132.199955,28.4375636 L132.199955,18.7016398 L138.291865,18.7016398 L138.291865,28.4375636 L143.030016,28.4375636 L143.030016,34.1645776 L138.291865,34.1645776 Z M161.102084,32.9646318 L156.066106,35.6645099 C155.271897,34.028212 154.288177,33.2100753 153.114914,33.2100753 C152.555358,33.2100753 152.077036,33.3964286 151.679931,33.7691409 C151.282827,34.1418532 151.084278,34.6190996 151.084278,35.2008944 C151.084278,36.2190354 152.257523,37.2280706 154.604048,38.2280304 C157.835032,39.6279742 160.010047,40.918812 161.129159,42.1005827 C162.248271,43.2823534 162.807819,44.8731748 162.807819,46.8730944 C162.807819,49.4366278 161.869223,51.581964 159.992003,53.3091673 C158.168934,54.9454652 155.966843,55.7636019 153.385666,55.7636019 C148.963369,55.7636019 145.831708,53.5909945 143.990588,49.2457145 L149.189017,46.8185514 C149.911025,48.0912276 150.461548,48.9002738 150.840602,49.2457145 C151.580659,49.9365958 152.465106,50.2820313 153.493966,50.2820313 C155.551688,50.2820313 156.580534,49.3366289 156.580534,47.4457958 C156.580534,46.3549306 155.786337,45.3368049 154.19792,44.3913883 C153.584214,44.0823099 152.970517,43.7823264 152.35681,43.491429 C151.743104,43.2005316 151.120381,42.9005482 150.488625,42.5914697 C148.719706,41.7187774 147.474261,40.8460983 146.752254,39.9734061 C145.831694,38.8643598 145.371421,37.4371658 145.371421,35.6917814 C145.371421,33.3827832 146.156592,31.4737976 147.726959,29.9647674 C149.333426,28.4557371 151.282818,27.7012333 153.575192,27.7012333 C156.950578,27.7012333 159.459517,29.4556819 161.102084,32.9646318 Z" id="alliants"></path>
        </g>
    </g>
</svg>