<?xml version="1.0" encoding="UTF-8"?>
<svg width="227px" height="118px" viewBox="0 0 227 118" version="1.1" xmlns="http://www.w3.org/2000/svg" xmlns:xlink="http://www.w3.org/1999/xlink" style="background: #797C85;">
    <!-- Generator: Sketch 48.2 (47327) - http://www.bohemiancoding.com/sketch -->
    <title>alliants-font--avenir-next</title>
    <desc>Created with Sketch.</desc>
    <defs></defs>
    <g id="Page-3" stroke="none" stroke-width="1" fill="none" fill-rule="evenodd">
        <g id="alliants-font--avenir-next" fill="#FFFFFF">
            <path d="M28.36,57 L25.753,57 L35.851,33.636 L38.161,33.636 L48.193,57 L45.553,57 L42.979,50.862 L30.901,50.862 L28.36,57 Z M31.792,48.684 L42.088,48.684 L36.94,36.276 L31.792,48.684 Z M57.829,57 L55.354,57 L49.051,41.556 L51.559,41.556 L56.575,54.624 L56.641,54.624 L61.69,41.556 L64.099,41.556 L57.829,57 Z M79.378,48.09 C79.3119997,46.6379927 78.8445043,45.4335048 77.9755,44.4765 C77.1064957,43.5194952 75.869008,43.041 74.263,43.041 C73.5149963,43.041 72.8220032,43.1784986 72.184,43.4535 C71.5459968,43.7285014 70.9850024,44.1024976 70.501,44.5755 C70.0169976,45.0485024 69.6320014,45.587497 69.346,46.1925 C69.0599986,46.797503 68.8950002,47.4299967 68.851,48.09 L79.378,48.09 Z M81.655,48.816 L81.655,49.311 C81.655,49.4870009 81.6440001,49.673999 81.622,49.872 L68.818,49.872 C68.8400001,50.6420039 68.9939986,51.3679966 69.28,52.05 C69.5660014,52.7320034 69.9619975,53.3259975 70.468,53.832 C70.9740025,54.3380025 71.5679966,54.7394985 72.25,55.0365 C72.9320034,55.3335015 73.668996,55.482 74.461,55.482 C75.6270058,55.482 76.6334958,55.2125027 77.4805,54.6735 C78.3275042,54.1344973 78.9709978,53.5130035 79.411,52.809 L81.094,54.129 C80.1699954,55.2950058 79.1525056,56.1309975 78.0415,56.637 C76.9304944,57.1430025 75.7370064,57.396 74.461,57.396 C73.3169943,57.396 72.2555049,57.192502 71.2765,56.7855 C70.2974951,56.378498 69.4560035,55.8120036 68.752,55.086 C68.0479965,54.3599964 67.492502,53.5020049 67.0855,52.512 C66.678498,51.5219951 66.475,50.4440058 66.475,49.278 C66.475,48.1119942 66.672998,47.0340049 67.069,46.044 C67.465002,45.053995 68.0149965,44.1960036 68.719,43.47 C69.4230035,42.7439964 70.2479953,42.177502 71.194,41.7705 C72.1400047,41.363498 73.1629945,41.16 74.263,41.16 C75.473006,41.16 76.5399954,41.363498 77.464,41.7705 C78.3880046,42.177502 79.1579969,42.7274965 79.774,43.4205 C80.3900031,44.1135035 80.8574984,44.9219954 81.1765,45.846 C81.4955016,46.7700046 81.655,47.7599947 81.655,48.816 Z M88.486,41.556 C88.5300002,41.9740021 88.5629999,42.4359975 88.585,42.942 C88.6070001,43.4480025 88.618,43.8659983 88.618,44.196 L88.684,44.196 C89.1240022,43.2939955 89.838995,42.5625028 90.829,42.0015 C91.8190049,41.4404972 92.8639945,41.16 93.964,41.16 C95.9220098,41.16 97.3904951,41.7429942 98.3695,42.909 C99.3485049,44.0750058 99.838,45.6149904 99.838,47.529 L99.838,57 L97.594,57 L97.594,48.453 C97.594,47.6389959 97.5280007,46.9020033 97.396,46.242 C97.2639993,45.5819967 97.0385016,45.0155024 96.7195,44.5425 C96.4004984,44.0694976 95.9715027,43.7010013 95.4325,43.437 C94.8934973,43.1729987 94.2170041,43.041 93.403,43.041 C92.808997,43.041 92.2315028,43.1619988 91.6705,43.404 C91.1094972,43.6460012 90.6090022,44.0144975 90.169,44.5095 C89.7289978,45.0045025 89.3770013,45.6314962 89.113,46.3905 C88.8489987,47.1495038 88.717,48.0459948 88.717,49.08 L88.717,57 L86.473,57 L86.473,44.955 C86.473,44.5369979 86.4620001,43.9980033 86.44,43.338 C86.4179999,42.6779967 86.3850002,42.0840026 86.341,41.556 L88.486,41.556 Z M107.923,57 L105.679,57 L105.679,41.556 L107.923,41.556 L107.923,57 Z M108.385,35.616 C108.385,36.0780023 108.220002,36.4574985 107.89,36.7545 C107.559998,37.0515015 107.197002,37.2 106.801,37.2 C106.404998,37.2 106.042002,37.0515015 105.712,36.7545 C105.381998,36.4574985 105.217,36.0780023 105.217,35.616 C105.217,35.1539977 105.381998,34.7745015 105.712,34.4775 C106.042002,34.1804985 106.404998,34.032 106.801,34.032 C107.197002,34.032 107.559998,34.1804985 107.89,34.4775 C108.220002,34.7745015 108.385,35.1539977 108.385,35.616 Z M113.896,44.955 C113.896,44.5369979 113.885,43.9980033 113.863,43.338 C113.841,42.6779967 113.808,42.0840026 113.764,41.556 L115.909,41.556 C115.953,41.9740021 115.986,42.4359975 116.008,42.942 C116.03,43.4480025 116.041,43.8659983 116.041,44.196 L116.107,44.196 C116.547002,43.2939955 117.206996,42.5625028 118.087,42.0015 C118.967004,41.4404972 119.956994,41.16 121.057,41.16 C121.343001,41.16 121.601499,41.1709999 121.8325,41.193 C122.063501,41.2150001 122.299999,41.2589997 122.542,41.325 L122.245,43.437 C122.112999,43.3929998 121.893002,43.3490002 121.585,43.305 C121.276998,43.2609998 120.969002,43.239 120.661,43.239 C120.066997,43.239 119.495003,43.3489989 118.945,43.569 C118.394997,43.7890011 117.916502,44.1354976 117.5095,44.6085 C117.102498,45.0815024 116.772501,45.6864963 116.5195,46.4235 C116.266499,47.1605037 116.14,48.0459948 116.14,49.08 L116.14,57 L113.896,57 L113.896,44.955 Z M150.724,53.535 L150.79,53.535 L150.79,33.636 L153.166,33.636 L153.166,57 L150.196,57 L136.6,36.903 L136.534,36.903 L136.534,57 L134.158,57 L134.158,33.636 L137.128,33.636 L150.724,53.535 Z M171.019,48.09 C170.953,46.6379927 170.485504,45.4335048 169.6165,44.4765 C168.747496,43.5194952 167.510008,43.041 165.904,43.041 C165.155996,43.041 164.463003,43.1784986 163.825,43.4535 C163.186997,43.7285014 162.626002,44.1024976 162.142,44.5755 C161.657998,45.0485024 161.273001,45.587497 160.987,46.1925 C160.700999,46.797503 160.536,47.4299967 160.492,48.09 L171.019,48.09 Z M173.296,48.816 L173.296,49.311 C173.296,49.4870009 173.285,49.673999 173.263,49.872 L160.459,49.872 C160.481,50.6420039 160.634999,51.3679966 160.921,52.05 C161.207001,52.7320034 161.602997,53.3259975 162.109,53.832 C162.615003,54.3380025 163.208997,54.7394985 163.891,55.0365 C164.573003,55.3335015 165.309996,55.482 166.102,55.482 C167.268006,55.482 168.274496,55.2125027 169.1215,54.6735 C169.968504,54.1344973 170.611998,53.5130035 171.052,52.809 L172.735,54.129 C171.810995,55.2950058 170.793506,56.1309975 169.6825,56.637 C168.571494,57.1430025 167.378006,57.396 166.102,57.396 C164.957994,57.396 163.896505,57.192502 162.9175,56.7855 C161.938495,56.378498 161.097004,55.8120036 160.393,55.086 C159.688996,54.3599964 159.133502,53.5020049 158.7265,52.512 C158.319498,51.5219951 158.116,50.4440058 158.116,49.278 C158.116,48.1119942 158.313998,47.0340049 158.71,46.044 C159.106002,45.053995 159.655996,44.1960036 160.36,43.47 C161.064004,42.7439964 161.888995,42.177502 162.835,41.7705 C163.781005,41.363498 164.803994,41.16 165.904,41.16 C167.114006,41.16 168.180995,41.363498 169.105,41.7705 C170.029005,42.177502 170.798997,42.7274965 171.415,43.4205 C172.031003,44.1135035 172.498498,44.9219954 172.8175,45.846 C173.136502,46.7700046 173.296,47.7599947 173.296,48.816 Z M181.744,49.014 L176.035,41.556 L178.906,41.556 L183.13,47.43 L187.354,41.556 L190.06,41.556 L184.45,48.915 L190.588,57 L187.684,57 L183.097,50.565 L178.378,57 L175.672,57 L181.744,49.014 Z M201.049,43.437 L196.693,43.437 L196.693,52.446 C196.693,53.0180029 196.747999,53.4909981 196.858,53.865 C196.968001,54.2390019 197.127499,54.530499 197.3365,54.7395 C197.545501,54.948501 197.792999,55.0914996 198.079,55.1685 C198.365001,55.2455004 198.672998,55.284 199.003,55.284 C199.311002,55.284 199.635498,55.2400004 199.9765,55.152 C200.317502,55.0639996 200.641998,54.9430008 200.95,54.789 L201.049,56.736 C200.652998,56.8900008 200.240502,57.0054996 199.8115,57.0825 C199.382498,57.1595004 198.915003,57.198 198.409,57.198 C197.990998,57.198 197.551002,57.1430005 197.089,57.033 C196.626998,56.9229994 196.198002,56.7140015 195.802,56.406 C195.405998,56.0979985 195.081501,55.6800026 194.8285,55.152 C194.575499,54.6239974 194.449,53.9310043 194.449,53.073 L194.449,43.437 L191.248,43.437 L191.248,41.556 L194.449,41.556 L194.449,37.2 L196.693,37.2 L196.693,41.556 L201.049,41.556 L201.049,43.437 Z" id="Avenir-Next"></path>
            <path d="M32.375,86.91 C32.375,87.4900029 32.2600012,87.977498 32.03,88.3725 C31.7999989,88.767502 31.4950019,89.0849988 31.115,89.325 C30.7349981,89.5650012 30.3025024,89.7374995 29.8175,89.8425 C29.3324976,89.9475005 28.8350025,90 28.325,90 L24.095,90 L24.095,79.38 L28.325,79.38 C28.735002,79.38 29.1549979,79.4224996 29.585,79.5075 C30.0150022,79.5925004 30.4049982,79.737499 30.755,79.9425 C31.1050017,80.147501 31.3899989,80.4249983 31.61,80.775 C31.8300011,81.1250017 31.94,81.5699973 31.94,82.11 C31.94,82.7000029 31.7800016,83.1874981 31.46,83.5725 C31.1399984,83.9575019 30.7200026,84.2349991 30.2,84.405 L30.2,84.435 C30.5000015,84.4850002 30.7824987,84.5774993 31.0475,84.7125 C31.3125013,84.8475007 31.542499,85.019999 31.7375,85.23 C31.932501,85.4400011 32.0874994,85.6849986 32.2025,85.965 C32.3175006,86.2450014 32.375,86.5599983 32.375,86.91 Z M29.465,82.455 C29.465,82.0949982 29.3275014,81.8325008 29.0525,81.6675 C28.7774986,81.5024992 28.3700027,81.42 27.83,81.42 L26.57,81.42 L26.57,83.61 L27.95,83.61 C28.4300024,83.61 28.8024987,83.512501 29.0675,83.3175 C29.3325013,83.122499 29.465,82.8350019 29.465,82.455 Z M29.81,86.67 C29.81,86.2299978 29.6450016,85.9250009 29.315,85.755 C28.9849983,85.5849992 28.5450028,85.5 27.995,85.5 L26.57,85.5 L26.57,87.93 L28.01,87.93 C28.210001,87.93 28.4174989,87.9125002 28.6325,87.8775 C28.8475011,87.8424998 29.0424991,87.7800005 29.2175,87.69 C29.3925009,87.5999996 29.5349995,87.4725008 29.645,87.3075 C29.7550005,87.1424992 29.81,86.9300013 29.81,86.67 Z M41.855,86.235 C41.855,86.8450031 41.7450011,87.3974975 41.525,87.8925 C41.3049989,88.3875025 41.0050019,88.8074983 40.625,89.1525 C40.2449981,89.4975017 39.8050025,89.7649991 39.305,89.955 C38.8049975,90.1450009 38.2700028,90.24 37.7,90.24 C37.1399972,90.24 36.6075025,90.1450009 36.1025,89.955 C35.5974975,89.7649991 35.1575019,89.4975017 34.7825,89.1525 C34.4074981,88.8074983 34.1100011,88.3875025 33.89,87.8925 C33.6699989,87.3974975 33.56,86.8450031 33.56,86.235 C33.56,85.6249969 33.6699989,85.0750024 33.89,84.585 C34.1100011,84.0949976 34.4074981,83.6800017 34.7825,83.34 C35.1575019,82.9999983 35.5974975,82.7400009 36.1025,82.56 C36.6075025,82.3799991 37.1399972,82.29 37.7,82.29 C38.2700028,82.29 38.8049975,82.3799991 39.305,82.56 C39.8050025,82.7400009 40.2449981,82.9999983 40.625,83.34 C41.0050019,83.6800017 41.3049989,84.0949976 41.525,84.585 C41.7450011,85.0750024 41.855,85.6249969 41.855,86.235 Z M39.485,86.235 C39.485,85.9949988 39.4450004,85.7600011 39.365,85.53 C39.2849996,85.2999989 39.1700007,85.0975009 39.02,84.9225 C38.8699992,84.7474991 38.6850011,84.6050005 38.465,84.495 C38.2449989,84.3849994 37.9900015,84.33 37.7,84.33 C37.4099985,84.33 37.1550011,84.3849994 36.935,84.495 C36.7149989,84.6050005 36.5325007,84.7474991 36.3875,84.9225 C36.2424993,85.0975009 36.1325004,85.2999989 36.0575,85.53 C35.9824996,85.7600011 35.945,85.9949988 35.945,86.235 C35.945,86.4750012 35.9824996,86.7099989 36.0575,86.94 C36.1325004,87.1700012 36.2449992,87.3774991 36.395,87.5625 C36.5450007,87.7475009 36.7299989,87.8949995 36.95,88.005 C37.1700011,88.1150006 37.4249985,88.17 37.715,88.17 C38.0050014,88.17 38.2599989,88.1150006 38.48,88.005 C38.7000011,87.8949995 38.8849992,87.7475009 39.035,87.5625 C39.1850008,87.3774991 39.2974996,87.1700012 39.3725,86.94 C39.4475004,86.7099989 39.485,86.4750012 39.485,86.235 Z M43.445,90 L43.445,78.66 L45.935,78.66 L45.935,90 L43.445,90 Z M53.54,90 L53.54,89.025 L53.51,89.025 C53.2699988,89.4050019 52.9275022,89.697499 52.4825,89.9025 C52.0374978,90.107501 51.5650025,90.21 51.065,90.21 C50.5049972,90.21 50.0050022,90.1000011 49.565,89.88 C49.1249978,89.6599989 48.7525015,89.3675018 48.4475,89.0025 C48.1424985,88.6374982 47.9100008,88.2150024 47.75,87.735 C47.5899992,87.2549976 47.51,86.7550026 47.51,86.235 C47.51,85.7149974 47.5924992,85.2175024 47.7575,84.7425 C47.9225008,84.2674976 48.1574985,83.8500018 48.4625,83.49 C48.7675015,83.1299982 49.1374978,82.8450011 49.5725,82.635 C50.0075022,82.424999 50.4949973,82.32 51.035,82.32 C51.5850027,82.32 52.0499981,82.424999 52.43,82.635 C52.8100019,82.8450011 53.1049989,83.0749987 53.315,83.325 L53.345,83.325 L53.345,78.66 L55.805,78.66 L55.805,90 L53.54,90 Z M53.45,86.25 C53.45,86.0099988 53.4075004,85.7750011 53.3225,85.545 C53.2374996,85.3149988 53.1175008,85.1100009 52.9625,84.93 C52.8074992,84.7499991 52.6200011,84.6050005 52.4,84.495 C52.1799989,84.3849994 51.9300014,84.33 51.65,84.33 C51.3599986,84.33 51.1050011,84.3849994 50.885,84.495 C50.6649989,84.6050005 50.4800008,84.7474991 50.33,84.9225 C50.1799992,85.0975009 50.0675004,85.2999989 49.9925,85.53 C49.9174996,85.7600011 49.88,85.9949988 49.88,86.235 C49.88,86.4750012 49.9174996,86.7124988 49.9925,86.9475 C50.0675004,87.1825012 50.1799992,87.3899991 50.33,87.57 C50.4800008,87.7500009 50.6649989,87.8949995 50.885,88.005 C51.1050011,88.1150006 51.3599986,88.17 51.65,88.17 C51.9300014,88.17 52.1799989,88.1150006 52.4,88.005 C52.6200011,87.8949995 52.8074992,87.7500009 52.9625,87.57 C53.1175008,87.3899991 53.2374996,87.1850012 53.3225,86.955 C53.4075004,86.7249988 53.45,86.4900012 53.45,86.25 Z" id="Bold"></path>
            <path d="M82.78,87.54 L82.81,87.54 L85.945,79.38 L88.255,79.38 L88.255,90 L86.77,90 L86.77,81.12 L86.74,81.12 L83.215,90 L82.27,90 L78.76,81.12 L78.73,81.12 L78.73,90 L77.29,90 L77.29,79.38 L79.6,79.38 L82.78,87.54 Z M95.965,85.815 C95.955,85.5349986 95.9075004,85.2725012 95.8225,85.0275 C95.7374996,84.7824988 95.6125008,84.5700009 95.4475,84.39 C95.2824992,84.2099991 95.0775012,84.0675005 94.8325,83.9625 C94.5874988,83.8574995 94.3000016,83.805 93.97,83.805 C93.6699985,83.805 93.3875013,83.8574995 93.1225,83.9625 C92.8574987,84.0675005 92.627501,84.2099991 92.4325,84.39 C92.237499,84.5700009 92.0775006,84.7824988 91.9525,85.0275 C91.8274994,85.2725012 91.7550001,85.5349986 91.735,85.815 L95.965,85.815 Z M97.39,86.385 L97.39,86.625 C97.39,86.7050004 97.3850001,86.7849996 97.375,86.865 L91.735,86.865 C91.7450001,87.1650015 91.8124994,87.4474987 91.9375,87.7125 C92.0625006,87.9775013 92.2299989,88.207499 92.44,88.4025 C92.6500011,88.597501 92.8924986,88.7499995 93.1675,88.86 C93.4425014,88.9700005 93.7349985,89.025 94.045,89.025 C94.5250024,89.025 94.9399983,88.920001 95.29,88.71 C95.6400017,88.499999 95.914999,88.2450015 96.115,87.945 L97.105,88.74 C96.7249981,89.2400025 96.2775026,89.6074988 95.7625,89.8425 C95.2474974,90.0775012 94.6750032,90.195 94.045,90.195 C93.5049973,90.195 93.0050023,90.1050009 92.545,89.925 C92.0849977,89.7449991 91.6900016,89.4925016 91.36,89.1675 C91.0299983,88.8424984 90.7700009,88.4500023 90.58,87.99 C90.3899991,87.5299977 90.295,87.0200028 90.295,86.46 C90.295,85.9099973 90.3874991,85.4025023 90.5725,84.9375 C90.7575009,84.4724977 91.0149983,84.0750017 91.345,83.745 C91.6750016,83.4149984 92.0649978,83.1575009 92.515,82.9725 C92.9650022,82.7874991 93.4499974,82.695 93.97,82.695 C94.4900026,82.695 94.9624979,82.7799992 95.3875,82.95 C95.8125021,83.1200008 96.1724985,83.3649984 96.4675,83.685 C96.7625015,84.0050016 96.9899992,84.3924977 97.15,84.8475 C97.3100008,85.3025023 97.39,85.8149971 97.39,86.385 Z M105.025,88.875 C104.754999,89.3050022 104.387502,89.6324989 103.9225,89.8575 C103.457498,90.0825011 102.970003,90.195 102.46,90.195 C101.909997,90.195 101.415002,90.097501 100.975,89.9025 C100.534998,89.707499 100.160002,89.4400017 99.85,89.1 C99.5399984,88.7599983 99.3000009,88.3600023 99.13,87.9 C98.9599992,87.4399977 98.875,86.9500026 98.875,86.43 C98.875,85.9099974 98.9599992,85.4225023 99.13,84.9675 C99.3000009,84.5124977 99.5424984,84.1150017 99.8575,83.775 C100.172502,83.4349983 100.549998,83.170001 100.99,82.98 C101.430002,82.7899991 101.914997,82.695 102.445,82.695 C103.025003,82.695 103.529998,82.8174988 103.96,83.0625 C104.390002,83.3075012 104.729999,83.6049982 104.98,83.955 L105.01,83.955 L105.01,78.66 L106.42,78.66 L106.42,90 L105.055,90 L105.055,88.875 L105.025,88.875 Z M100.345,86.43 C100.345,86.7600017 100.394999,87.0799985 100.495,87.39 C100.595,87.7000015 100.744999,87.9749988 100.945,88.215 C101.145001,88.4550012 101.389999,88.6474993 101.68,88.7925 C101.970001,88.9375007 102.309998,89.01 102.7,89.01 C103.060002,89.01 103.387499,88.9400007 103.6825,88.8 C103.977501,88.6599993 104.229999,88.4725012 104.44,88.2375 C104.650001,88.0024988 104.812499,87.7300015 104.9275,87.42 C105.042501,87.1099985 105.1,86.7850017 105.1,86.445 C105.1,86.1049983 105.042501,85.7800015 104.9275,85.47 C104.812499,85.1599985 104.650001,84.8850012 104.44,84.645 C104.229999,84.4049988 103.977501,84.2150007 103.6825,84.075 C103.387499,83.9349993 103.060002,83.865 102.7,83.865 C102.309998,83.865 101.970001,83.9349993 101.68,84.075 C101.389999,84.2150007 101.145001,84.4049988 100.945,84.645 C100.744999,84.8850012 100.595,85.1599985 100.495,85.47 C100.394999,85.7800015 100.345,86.0999983 100.345,86.43 Z M110.305,90 L108.895,90 L108.895,82.89 L110.305,82.89 L110.305,90 Z M110.545,80.325 C110.545,80.5850013 110.452501,80.7999992 110.2675,80.97 C110.082499,81.1400009 109.860001,81.225 109.6,81.225 C109.339999,81.225 109.120001,81.1375009 108.94,80.9625 C108.759999,80.7874991 108.67,80.5750012 108.67,80.325 C108.67,80.0649987 108.759999,79.8475009 108.94,79.6725 C109.120001,79.4974991 109.339999,79.41 109.6,79.41 C109.860001,79.41 110.082499,79.4974991 110.2675,79.6725 C110.452501,79.8475009 110.545,80.0649987 110.545,80.325 Z M117.775,90 C117.755,89.8199991 117.74,89.6175011 117.73,89.3925 C117.72,89.1674989 117.715,88.9800008 117.715,88.83 L117.685,88.83 C117.504999,89.2100019 117.202502,89.5324987 116.7775,89.7975 C116.352498,90.0625013 115.880003,90.195 115.36,90.195 C114.899998,90.195 114.502502,90.1200008 114.1675,89.97 C113.832498,89.8199992 113.557501,89.6125013 113.3425,89.3475 C113.127499,89.0824987 112.967501,88.7750018 112.8625,88.425 C112.757499,88.0749982 112.705,87.700002 112.705,87.3 L112.705,82.89 L114.115,82.89 L114.115,86.82 C114.115,87.1100014 114.1375,87.3874987 114.1825,87.6525 C114.2275,87.9175013 114.309999,88.149999 114.43,88.35 C114.550001,88.550001 114.714999,88.7099994 114.925,88.83 C115.135001,88.9500006 115.404998,89.01 115.735,89.01 C116.305003,89.01 116.764998,88.7975021 117.115,88.3725 C117.465002,87.9474979 117.64,87.3800035 117.64,86.67 L117.64,82.89 L119.05,82.89 L119.05,88.47 C119.05,88.6600009 119.055,88.9049985 119.065,89.205 C119.075,89.5050015 119.09,89.7699989 119.11,90 L117.775,90 Z M122.875,84.06 C123.055001,83.6799981 123.342498,83.3575013 123.7375,83.0925 C124.132502,82.8274987 124.599997,82.695 125.14,82.695 C125.620002,82.695 126.052498,82.8049989 126.4375,83.025 C126.822502,83.2450011 127.124999,83.6099975 127.345,84.12 C127.585001,83.6599977 127.919998,83.3075012 128.35,83.0625 C128.780002,82.8174988 129.249997,82.695 129.76,82.695 C130.220002,82.695 130.614998,82.7724992 130.945,82.9275 C131.275002,83.0825008 131.549999,83.2899987 131.77,83.55 C131.990001,83.8100013 132.152499,84.1149982 132.2575,84.465 C132.362501,84.8150017 132.415,85.189998 132.415,85.59 L132.415,90 L131.005,90 L131.005,86.055 C131.005,85.7649986 130.98,85.4900013 130.93,85.23 C130.88,84.9699987 130.795001,84.740001 130.675,84.54 C130.554999,84.339999 130.395001,84.1800006 130.195,84.06 C129.994999,83.9399994 129.740002,83.88 129.43,83.88 C129.109998,83.88 128.835001,83.9474993 128.605,84.0825 C128.374999,84.2175007 128.187501,84.3924989 128.0425,84.6075 C127.897499,84.8225011 127.7925,85.0649987 127.7275,85.335 C127.6625,85.6050013 127.63,85.8799986 127.63,86.16 L127.63,90 L126.22,90 L126.22,85.77 C126.22,85.4899986 126.195,85.2350012 126.145,85.005 C126.095,84.7749989 126.010001,84.5775008 125.89,84.4125 C125.769999,84.2474992 125.615001,84.1175005 125.425,84.0225 C125.234999,83.9274995 125.000001,83.88 124.72,83.88 C124.199997,83.88 123.767502,84.0924979 123.4225,84.5175 C123.077498,84.9425021 122.905,85.5099965 122.905,86.22 L122.905,90 L121.495,90 L121.495,84.42 C121.495,84.2299991 121.49,83.9850015 121.48,83.685 C121.47,83.3849985 121.455,83.1200012 121.435,82.89 L122.77,82.89 C122.79,83.0700009 122.805,83.2724989 122.815,83.4975 C122.825,83.7225011 122.83,83.9099992 122.83,84.06 L122.875,84.06 Z" id="Medium"></path>
            <path d="M153.49,90 L152.41,90 L152.41,79.38 L155.53,79.38 C156.050003,79.38 156.532498,79.4299995 156.9775,79.53 C157.422502,79.6300005 157.807498,79.7924989 158.1325,80.0175 C158.457502,80.2425011 158.709999,80.5349982 158.89,80.895 C159.070001,81.2550018 159.16,81.6949974 159.16,82.215 C159.16,82.605002 159.090001,82.9599984 158.95,83.28 C158.809999,83.6000016 158.620001,83.8774988 158.38,84.1125 C158.139999,84.3475012 157.855002,84.5349993 157.525,84.675 C157.194998,84.8150007 156.835002,84.9049998 156.445,84.945 L159.55,90 L158.23,90 L155.29,85.035 L153.49,85.035 L153.49,90 Z M153.49,84.105 L155.365,84.105 C156.235004,84.105 156.904998,83.9475016 157.375,83.6325 C157.845002,83.3174984 158.08,82.8450031 158.08,82.215 C158.08,81.8649982 158.015001,81.5700012 157.885,81.33 C157.754999,81.0899988 157.575001,80.8950008 157.345,80.745 C157.114999,80.5949993 156.835002,80.4850004 156.505,80.415 C156.174998,80.3449997 155.810002,80.31 155.41,80.31 L153.49,80.31 L153.49,84.105 Z M166.69,85.95 C166.66,85.2899967 166.447502,84.7425022 166.0525,84.3075 C165.657498,83.8724978 165.095004,83.655 164.365,83.655 C164.024998,83.655 163.710001,83.7174994 163.42,83.8425 C163.129999,83.9675006 162.875001,84.1374989 162.655,84.3525 C162.434999,84.5675011 162.260001,84.8124986 162.13,85.0875 C161.999999,85.3625014 161.925,85.6499985 161.905,85.95 L166.69,85.95 Z M167.725,86.28 L167.725,86.505 C167.725,86.5850004 167.72,86.6699995 167.71,86.76 L161.89,86.76 C161.9,87.1100017 161.969999,87.4399985 162.1,87.75 C162.230001,88.0600015 162.409999,88.3299988 162.64,88.56 C162.870001,88.7900011 163.139998,88.9724993 163.45,89.1075 C163.760002,89.2425007 164.094998,89.31 164.455,89.31 C164.985003,89.31 165.442498,89.1875012 165.8275,88.9425 C166.212502,88.6974988 166.504999,88.4150016 166.705,88.095 L167.47,88.695 C167.049998,89.2250026 166.587503,89.6049989 166.0825,89.835 C165.577497,90.0650012 165.035003,90.18 164.455,90.18 C163.934997,90.18 163.452502,90.0875009 163.0075,89.9025 C162.562498,89.7174991 162.180002,89.4600016 161.86,89.13 C161.539998,88.7999983 161.287501,88.4100023 161.1025,87.96 C160.917499,87.5099977 160.825,87.0200026 160.825,86.49 C160.825,85.9599973 160.914999,85.4700022 161.095,85.02 C161.275001,84.5699977 161.524998,84.1800017 161.845,83.85 C162.165002,83.5199984 162.539998,83.2625009 162.97,83.0775 C163.400002,82.8924991 163.864997,82.8 164.365,82.8 C164.915003,82.8 165.399998,82.8924991 165.82,83.0775 C166.240002,83.2625009 166.589999,83.5124984 166.87,83.8275 C167.150001,84.1425016 167.362499,84.5099979 167.5075,84.93 C167.652501,85.3500021 167.725,85.7999976 167.725,86.28 Z M170.29,91.41 C170.570001,91.7700018 170.952498,92.0749987 171.4375,92.325 C171.922502,92.5750012 172.434997,92.7 172.975,92.7 C173.475002,92.7 173.899998,92.6275007 174.25,92.4825 C174.600002,92.3374993 174.882499,92.1400012 175.0975,91.89 C175.312501,91.6399988 175.47,91.3475017 175.57,91.0125 C175.670001,90.6774983 175.72,90.3200019 175.72,89.94 L175.72,88.62 L175.69,88.62 C175.419999,89.0600022 175.037502,89.3999988 174.5425,89.64 C174.047498,89.8800012 173.545003,90 173.035,90 C172.484997,90 171.987502,89.9100009 171.5425,89.73 C171.097498,89.5499991 170.717502,89.3025016 170.4025,88.9875 C170.087498,88.6724984 169.842501,88.2950022 169.6675,87.855 C169.492499,87.4149978 169.405,86.9400026 169.405,86.43 C169.405,85.9299975 169.492499,85.4600022 169.6675,85.02 C169.842501,84.5799978 170.087498,84.1950016 170.4025,83.865 C170.717502,83.5349983 171.097498,83.275001 171.5425,83.085 C171.987502,82.894999 172.484997,82.8 173.035,82.8 C173.545003,82.8 174.044998,82.9199988 174.535,83.16 C175.025002,83.4000012 175.409999,83.7449977 175.69,84.195 L175.72,84.195 L175.72,82.98 L176.74,82.98 L176.74,89.94 C176.74,90.3200019 176.687501,90.7249978 176.5825,91.155 C176.477499,91.5850022 176.282501,91.9799982 175.9975,92.34 C175.712499,92.7000018 175.325002,92.9999988 174.835,93.24 C174.344998,93.4800012 173.710004,93.6 172.93,93.6 C172.279997,93.6 171.660003,93.4750012 171.07,93.225 C170.479997,92.9749987 169.975002,92.6300022 169.555,92.19 L170.29,91.41 Z M170.485,86.4 C170.485,86.7700018 170.544999,87.1199984 170.665,87.45 C170.785001,87.7800017 170.957499,88.0699987 171.1825,88.32 C171.407501,88.5700013 171.684998,88.7674993 172.015,88.9125 C172.345002,89.0575007 172.719998,89.13 173.14,89.13 C173.530002,89.13 173.889998,89.0650007 174.22,88.935 C174.550002,88.8049994 174.834999,88.6200012 175.075,88.38 C175.315001,88.1399988 175.502499,87.8525017 175.6375,87.5175 C175.772501,87.1824983 175.84,86.8100021 175.84,86.4 C175.84,86.0299981 175.772501,85.6800016 175.6375,85.35 C175.502499,85.0199984 175.315001,84.7300013 175.075,84.48 C174.834999,84.2299987 174.550002,84.0300007 174.22,83.88 C173.889998,83.7299993 173.530002,83.655 173.14,83.655 C172.719998,83.655 172.345002,83.7299993 172.015,83.88 C171.684998,84.0300007 171.407501,84.2299987 171.1825,84.48 C170.957499,84.7300013 170.785001,85.0199984 170.665,85.35 C170.544999,85.6800016 170.485,86.0299981 170.485,86.4 Z M184.495,90 C184.475,89.8099991 184.46,89.6000011 184.45,89.37 C184.44,89.1399988 184.435,88.9500008 184.435,88.8 L184.405,88.8 C184.204999,89.210002 183.880002,89.5424987 183.43,89.7975 C182.979998,90.0525013 182.505002,90.18 182.005,90.18 C181.114996,90.18 180.447502,89.9150027 180.0025,89.385 C179.557498,88.8549974 179.335,88.1550043 179.335,87.285 L179.335,82.98 L180.355,82.98 L180.355,86.865 C180.355,87.2350019 180.385,87.5699985 180.445,87.87 C180.505,88.1700015 180.607499,88.4274989 180.7525,88.6425 C180.897501,88.8575011 181.092499,89.0249994 181.3375,89.145 C181.582501,89.2650006 181.889998,89.325 182.26,89.325 C182.530001,89.325 182.792499,89.2700006 183.0475,89.16 C183.302501,89.0499995 183.529999,88.8825011 183.73,88.6575 C183.930001,88.4324989 184.089999,88.1475017 184.21,87.8025 C184.330001,87.4574983 184.39,87.0500023 184.39,86.58 L184.39,82.98 L185.41,82.98 L185.41,88.455 C185.41,88.6450009 185.415,88.8899985 185.425,89.19 C185.435,89.4900015 185.45,89.7599988 185.47,90 L184.495,90 Z M189.16,90 L188.14,90 L188.14,78.66 L189.16,78.66 L189.16,90 Z M196.315,85.47 C196.315,84.8599969 196.155002,84.4050015 195.835,84.105 C195.514998,83.8049985 195.050003,83.655 194.44,83.655 C194.019998,83.655 193.630002,83.7299993 193.27,83.88 C192.909998,84.0300007 192.605001,84.2299987 192.355,84.48 L191.785,83.805 C192.075001,83.5149986 192.457498,83.275001 192.9325,83.085 C193.407502,82.894999 193.944997,82.8 194.545,82.8 C194.925002,82.8 195.279998,82.8524995 195.61,82.9575 C195.940002,83.0625005 196.229999,83.219999 196.48,83.43 C196.730001,83.640001 196.924999,83.9049984 197.065,84.225 C197.205001,84.5450016 197.275,84.9199979 197.275,85.35 L197.275,88.425 C197.275,88.6950013 197.285,88.9749985 197.305,89.265 C197.325,89.5550015 197.355,89.799999 197.395,90 L196.48,90 C196.45,89.8299991 196.425,89.645001 196.405,89.445 C196.385,89.244999 196.375,89.0500009 196.375,88.86 L196.345,88.86 C196.024998,89.3300024 195.662502,89.667499 195.2575,89.8725 C194.852498,90.077501 194.365003,90.18 193.795,90.18 C193.524999,90.18 193.247501,90.1425004 192.9625,90.0675 C192.677499,89.9924996 192.417501,89.8700008 192.1825,89.7 C191.947499,89.5299991 191.752501,89.3100013 191.5975,89.04 C191.442499,88.7699987 191.365,88.4400019 191.365,88.05 C191.365,87.5099973 191.502499,87.0825016 191.7775,86.7675 C192.052501,86.4524984 192.419998,86.2175008 192.88,86.0625 C193.340002,85.9074992 193.867497,85.8075002 194.4625,85.7625 C195.057503,85.7174998 195.674997,85.695 196.315,85.695 L196.315,85.47 Z M196.015,86.49 C195.594998,86.49 195.172502,86.5074998 194.7475,86.5425 C194.322498,86.5775002 193.937502,86.6474995 193.5925,86.7525 C193.247498,86.8575005 192.965001,87.009999 192.745,87.21 C192.524999,87.410001 192.415,87.6749983 192.415,88.005 C192.415,88.2550012 192.4625,88.4649991 192.5575,88.635 C192.6525,88.8050008 192.779999,88.9424995 192.94,89.0475 C193.100001,89.1525005 193.277499,89.2274998 193.4725,89.2725 C193.667501,89.3175002 193.864999,89.34 194.065,89.34 C194.425002,89.34 194.744999,89.2775006 195.025,89.1525 C195.305001,89.0274994 195.539999,88.8575011 195.73,88.6425 C195.920001,88.4274989 196.064999,88.1800014 196.165,87.9 C196.265,87.6199986 196.315,87.3250015 196.315,87.015 L196.315,86.49 L196.015,86.49 Z M199.9,84.525 C199.9,84.334999 199.895,84.0900015 199.885,83.79 C199.875,83.4899985 199.86,83.2200012 199.84,82.98 L200.815,82.98 C200.835,83.170001 200.85,83.3799988 200.86,83.61 C200.87,83.8400012 200.875,84.0299993 200.875,84.18 L200.905,84.18 C201.105001,83.769998 201.404998,83.4375013 201.805,83.1825 C202.205002,82.9274987 202.654997,82.8 203.155,82.8 C203.285001,82.8 203.402499,82.8049999 203.5075,82.815 C203.612501,82.825 203.719999,82.8449998 203.83,82.875 L203.695,83.835 C203.635,83.8149999 203.535001,83.7950001 203.395,83.775 C203.254999,83.7549999 203.115001,83.745 202.975,83.745 C202.704999,83.745 202.445001,83.7949995 202.195,83.895 C201.944999,83.9950005 201.727501,84.1524989 201.5425,84.3675 C201.357499,84.5825011 201.207501,84.8574983 201.0925,85.1925 C200.977499,85.5275017 200.92,85.9299977 200.92,86.4 L200.92,90 L199.9,90 L199.9,84.525 Z" id="Regular"></path>
        </g>
    </g>
</svg>