<svg class="icon-link" width="512" height="512" viewBox="0 0 512 512" xmlns="http://www.w3.org/2000/svg">
  <title>Link icon</title>
  <path fill="{{ include.fill_color }}" d="M320 320c35.346 0 64-28.654 64-64 0-35.346-28.654-64-64-64h-16v24h16c22.091 0 40 17.909 40 40s-17.909 40-40 40h-36c-22.091 0-40-17.909-40-40h-24c0 35.346 28.654 64 64 64h36zM192 192c-35.346 0-64 28.654-64 64 0 35.346 28.654 64 64 64h16v-24h-16c-22.091 0-40-17.909-40-40s17.909-40 40-40h36c22.091 0 40 17.909 40 40h24c0-35.346-28.654-64-64-64h-36z" />
</svg>
