<svg class="icon-download" width="512" height="512" viewBox="0 0 512 512" xmlns="http://www.w3.org/2000/svg">
  <title>Download icon</title>
  <path fill="{{ include.fill_color }}" fill-rule="evenodd" d="M240 256.01V129.993c0-1.101.89-1.994 2.002-1.994h27.996c1.106 0 2.002.9 2.002 1.994v125.997l38.587-38.579a1.994 1.994 0 0 1 2.825 0l21.176 21.176a1.996 1.996 0 0 1-.002 2.826l-77.184 77.172a1.999 1.999 0 0 1-2.828 0l-77.16-77.172a1.997 1.997 0 0 1-.002-2.826l21.176-21.176a1.994 1.994 0 0 1 2.824 0L240 256.01zm-64 97.992c0-1.106.9-2.002 1.994-2.002h156.012c1.101 0 1.994.89 1.994 2.002v27.996c0 1.106-.9 2.002-1.994 2.002H177.994a1.993 1.993 0 0 1-1.994-2.002v-27.996z"/>
</svg>
