<svg class="icon-search" width="512" height="512" viewBox="0 0 512 512" xmlns="http://www.w3.org/2000/svg">
  <title>Search icon</title>
  <path fill="{{ include.fill_color }}" fill-rule="evenodd" d="M299.7 283.045l4.8 4.955h5.495c1.107 0 2.638.633 3.416 1.411l61.178 61.178c.78.78.781 2.04 0 2.823l-21.177 21.176c-.78.78-2.045.779-2.823 0l-61.178-61.177c-.78-.78-1.411-2.308-1.411-3.416V304l-4.588-4.588C267.069 312.306 246.432 320 224 320c-53.02 0-96-42.98-96-96s42.98-96 96-96 96 42.98 96 96c0 22.265-7.58 42.76-20.3 59.045zM224 288c35.346 0 64-28.654 64-64 0-35.346-28.654-64-64-64-35.346 0-64 28.654-64 64 0 35.346 28.654 64 64 64z" />
</svg>
