<?xml version="1.0" encoding="UTF-8"?>
<svg width="424px" height="300px" viewBox="0 0 424 300" version="1.1" xmlns="http://www.w3.org/2000/svg" xmlns:xlink="http://www.w3.org/1999/xlink">
    <!-- Generator: Sketch 48.2 (47327) - http://www.bohemiancoding.com/sketch -->
    <title>presentation-preview--a4</title>
    <desc>Created with Sketch.</desc>
    <defs></defs>
    <g id="Page-3" stroke="none" stroke-width="1" fill="none" fill-rule="evenodd">
        <g id="presentation-preview--a4">
            <rect id="Rectangle-5" fill="#A358F7" x="0" y="0" width="424.024024" height="300"></rect>
            <path d="M114.296,167 L109.016,167 L123.752,133.016 L128.072,133.016 L142.664,167 L137.288,167 L133.832,158.648 L117.704,158.648 L114.296,167 Z M119.384,154.472 L132.104,154.472 L125.768,138.536 L119.384,154.472 Z M164.552,155.384 L169.448,155.384 L169.448,159.368 L164.552,159.368 L164.552,167 L160.04,167 L160.04,159.368 L144.392,159.368 L144.392,155.144 L158.84,133.016 L164.552,133.016 L164.552,155.384 Z M160.04,138.344 L159.944,138.344 L149.192,155.384 L160.04,155.384 L160.04,138.344 Z M191.864,178.52 L187.352,178.52 L187.352,144.248 L191.768,144.248 L191.768,147.8 L191.912,147.8 C192.648004,146.583994 193.727993,145.584004 195.152,144.8 C196.576007,144.015996 198.231991,143.624 200.12,143.624 C201.816008,143.624 203.359993,143.927997 204.752,144.536 C206.144007,145.144003 207.343995,145.991995 208.352,147.08 C209.360005,148.168005 210.135997,149.439993 210.68,150.896 C211.224003,152.352007 211.496,153.911992 211.496,155.576 C211.496,157.240008 211.224003,158.807993 210.68,160.28 C210.135997,161.752007 209.368005,163.031995 208.376,164.12 C207.383995,165.208005 206.184007,166.063997 204.776,166.688 C203.367993,167.312003 201.784009,167.624 200.024,167.624 C198.391992,167.624 196.856007,167.272004 195.416,166.568 C193.975993,165.863996 192.840004,164.872006 192.008,163.592 L191.864,163.592 L191.864,178.52 Z M206.84,155.576 C206.84,154.519995 206.680002,153.496005 206.36,152.504 C206.039998,151.511995 205.560003,150.632004 204.92,149.864 C204.279997,149.095996 203.488005,148.488002 202.544,148.04 C201.599995,147.591998 200.504006,147.368 199.256,147.368 C198.103994,147.368 197.056005,147.591998 196.112,148.04 C195.167995,148.488002 194.360003,149.095996 193.688,149.864 C193.015997,150.632004 192.496002,151.511995 192.128,152.504 C191.759998,153.496005 191.576,154.535995 191.576,155.624 C191.576,156.712005 191.759998,157.751995 192.128,158.744 C192.496002,159.736005 193.015997,160.607996 193.688,161.36 C194.360003,162.112004 195.167995,162.711998 196.112,163.16 C197.056005,163.608002 198.103994,163.832 199.256,163.832 C200.504006,163.832 201.599995,163.600002 202.544,163.136 C203.488005,162.671998 204.279997,162.056004 204.92,161.288 C205.560003,160.519996 206.039998,159.640005 206.36,158.648 C206.680002,157.655995 206.84,156.632005 206.84,155.576 Z M231.944,152.264 C231.944,150.567992 231.432005,149.312004 230.408,148.496 C229.383995,147.679996 228.024008,147.272 226.328,147.272 C225.047994,147.272 223.840006,147.519998 222.704,148.016 C221.567994,148.512002 220.616004,149.143996 219.848,149.912 L217.448,147.032 C218.568006,145.975995 219.935992,145.144003 221.552,144.536 C223.168008,143.927997 224.903991,143.624 226.76,143.624 C228.392008,143.624 229.807994,143.855998 231.008,144.32 C232.208006,144.784002 233.191996,145.415996 233.96,146.216 C234.728004,147.016004 235.303998,147.959995 235.688,149.048 C236.072002,150.136005 236.264,151.303994 236.264,152.552 L236.264,162.488 C236.264,163.256004 236.288,164.063996 236.336,164.912 C236.384,165.760004 236.471999,166.455997 236.6,167 L232.52,167 C232.263999,165.911995 232.136,164.824005 232.136,163.736 L231.992,163.736 C231.159996,164.952006 230.112006,165.895997 228.848,166.568 C227.583994,167.240003 226.088009,167.576 224.36,167.576 C223.463996,167.576 222.528005,167.456001 221.552,167.216 C220.575995,166.975999 219.688004,166.584003 218.888,166.04 C218.087996,165.495997 217.424003,164.776004 216.896,163.88 C216.367997,162.983996 216.104,161.880007 216.104,160.568 C216.104,158.839991 216.567995,157.472005 217.496,156.464 C218.424005,155.455995 219.639992,154.688003 221.144,154.16 C222.648008,153.631997 224.343991,153.288001 226.232,153.128 C228.120009,152.967999 230.02399,152.888 231.944,152.888 L231.944,152.264 Z M230.84,156.152 C229.719994,156.152 228.560006,156.2 227.36,156.296 C226.159994,156.392 225.072005,156.583999 224.096,156.872 C223.119995,157.160001 222.312003,157.591997 221.672,158.168 C221.031997,158.744003 220.712,159.511995 220.712,160.472 C220.712,161.144003 220.847999,161.703998 221.12,162.152 C221.392001,162.600002 221.751998,162.967999 222.2,163.256 C222.648002,163.544001 223.143997,163.743999 223.688,163.856 C224.232003,163.968001 224.791997,164.024 225.368,164.024 C227.480011,164.024 229.103994,163.392006 230.24,162.128 C231.376006,160.863994 231.944,159.27201 231.944,157.352 L231.944,156.152 L230.84,156.152 Z M248.312,178.52 L243.8,178.52 L243.8,144.248 L248.216,144.248 L248.216,147.8 L248.36,147.8 C249.096004,146.583994 250.175993,145.584004 251.6,144.8 C253.024007,144.015996 254.679991,143.624 256.568,143.624 C258.264008,143.624 259.807993,143.927997 261.2,144.536 C262.592007,145.144003 263.791995,145.991995 264.8,147.08 C265.808005,148.168005 266.583997,149.439993 267.128,150.896 C267.672003,152.352007 267.944,153.911992 267.944,155.576 C267.944,157.240008 267.672003,158.807993 267.128,160.28 C266.583997,161.752007 265.816005,163.031995 264.824,164.12 C263.831995,165.208005 262.632007,166.063997 261.224,166.688 C259.815993,167.312003 258.232009,167.624 256.472,167.624 C254.839992,167.624 253.304007,167.272004 251.864,166.568 C250.423993,165.863996 249.288004,164.872006 248.456,163.592 L248.312,163.592 L248.312,178.52 Z M263.288,155.576 C263.288,154.519995 263.128002,153.496005 262.808,152.504 C262.487998,151.511995 262.008003,150.632004 261.368,149.864 C260.727997,149.095996 259.936005,148.488002 258.992,148.04 C258.047995,147.591998 256.952006,147.368 255.704,147.368 C254.551994,147.368 253.504005,147.591998 252.56,148.04 C251.615995,148.488002 250.808003,149.095996 250.136,149.864 C249.463997,150.632004 248.944002,151.511995 248.576,152.504 C248.207998,153.496005 248.024,154.535995 248.024,155.624 C248.024,156.712005 248.207998,157.751995 248.576,158.744 C248.944002,159.736005 249.463997,160.607996 250.136,161.36 C250.808003,162.112004 251.615995,162.711998 252.56,163.16 C253.504005,163.608002 254.551994,163.832 255.704,163.832 C256.952006,163.832 258.047995,163.600002 258.992,163.136 C259.936005,162.671998 260.727997,162.056004 261.368,161.288 C262.008003,160.519996 262.487998,159.640005 262.808,158.648 C263.128002,157.655995 263.288,156.632005 263.288,155.576 Z M290.888,153.608 C290.856,152.711996 290.704001,151.872004 290.432,151.088 C290.159999,150.303996 289.760003,149.624003 289.232,149.048 C288.703997,148.471997 288.048004,148.016002 287.264,147.68 C286.479996,147.343998 285.560005,147.176 284.504,147.176 C283.543995,147.176 282.640004,147.343998 281.792,147.68 C280.943996,148.016002 280.208003,148.471997 279.584,149.048 C278.959997,149.624003 278.448002,150.303996 278.048,151.088 C277.647998,151.872004 277.416,152.711996 277.352,153.608 L290.888,153.608 Z M295.448,155.432 L295.448,156.2 C295.448,156.456001 295.432,156.711999 295.4,156.968 L277.352,156.968 C277.384,157.928005 277.599998,158.831996 278,159.68 C278.400002,160.528004 278.935997,161.263997 279.608,161.888 C280.280003,162.512003 281.055996,162.999998 281.936,163.352 C282.816004,163.704002 283.751995,163.88 284.744,163.88 C286.280008,163.88 287.607994,163.544003 288.728,162.872 C289.848006,162.199997 290.727997,161.384005 291.368,160.424 L294.536,162.968 C293.319994,164.568008 291.888008,165.743996 290.24,166.496 C288.591992,167.248004 286.76001,167.624 284.744,167.624 C283.015991,167.624 281.416007,167.336003 279.944,166.76 C278.471993,166.183997 277.208005,165.376005 276.152,164.336 C275.095995,163.295995 274.264003,162.040007 273.656,160.568 C273.047997,159.095993 272.744,157.464009 272.744,155.672 C272.744,153.911991 273.039997,152.288007 273.632,150.8 C274.224003,149.311993 275.047995,148.040005 276.104,146.984 C277.160005,145.927995 278.407993,145.104003 279.848,144.512 C281.288007,143.919997 282.839992,143.624 284.504,143.624 C286.168008,143.624 287.679993,143.895997 289.04,144.44 C290.400007,144.984003 291.551995,145.767995 292.496,146.792 C293.440005,147.816005 294.167997,149.055993 294.68,150.512 C295.192003,151.968007 295.448,153.607991 295.448,155.432 Z M301.736,149.144 C301.736,148.535997 301.72,147.752005 301.688,146.792 C301.656,145.831995 301.608,144.984004 301.544,144.248 L305.816,144.248 C305.88,144.824003 305.928,145.487996 305.96,146.24 C305.992,146.992004 306.008,147.607998 306.008,148.088 L306.152,148.088 C306.792003,146.743993 307.727994,145.664004 308.96,144.848 C310.192006,144.031996 311.575992,143.624 313.112,143.624 C313.816004,143.624 314.407998,143.687999 314.888,143.816 L314.696,147.992 C314.055997,147.831999 313.368004,147.752 312.632,147.752 C311.543995,147.752 310.600004,147.951998 309.8,148.352 C308.999996,148.752002 308.336003,149.287997 307.808,149.96 C307.279997,150.632003 306.888001,151.407996 306.632,152.288 C306.375999,153.168004 306.248,154.087995 306.248,155.048 L306.248,167 L301.736,167 L301.736,149.144 Z" id="A4-paper" fill="#FFFFFF"></path>
        </g>
    </g>
</svg>