<?xml version="1.0" encoding="UTF-8"?>
<svg width="227px" height="118px" viewBox="0 0 227 118" version="1.1" xmlns="http://www.w3.org/2000/svg" xmlns:xlink="http://www.w3.org/1999/xlink" style="background: #4B76FB;">
    <!-- Generator: Sketch 48.2 (47327) - http://www.bohemiancoding.com/sketch -->
    <title>vector/alliants-logo-white-on-blue</title>
    <desc>Created with Sketch.</desc>
    <defs></defs>
    <g id="Page-1" stroke="none" stroke-width="1" fill="none" fill-rule="evenodd">
        <g id="alliants-logo-white-on-blue" fill="#FFFFFF">
            <path d="M52.6854161,55.4375636 L58.8044005,55.4375636 L58.8044005,82 L52.6854161,82 L52.6854161,79.2183075 C50.1764395,81.5818489 47.4779763,82.7636019 44.5899457,82.7636019 C40.943807,82.7636019 37.9294702,81.4364024 35.5468449,78.7819636 C33.1822698,76.0729815 32,72.6913499 32,68.6369673 C32,64.6553091 33.1822698,61.3373104 35.5468449,58.6828716 C37.91142,56.0284327 40.871607,54.7012333 44.4274948,54.7012333 C47.4960273,54.7012333 50.2486403,55.9738903 52.6854161,58.5192426 L52.6854161,55.4375636 Z M38.227285,68.6369673 C38.227285,71.1823196 38.904157,73.2549325 40.2579214,74.8548682 C41.6477861,76.4729851 43.3986284,77.2820313 45.5105008,77.2820313 C47.7667748,77.2820313 49.5898168,76.5002563 50.9796815,74.9366827 C52.3695463,73.3185659 53.0644683,71.2641338 53.0644683,68.7733248 C53.0644683,66.2825158 52.3695463,64.2280837 50.9796815,62.6099669 C49.5898168,61.0282122 47.7848247,60.2373468 45.5646511,60.2373468 C43.4708289,60.2373468 41.7199866,61.0373026 40.3120717,62.6372384 C38.9222069,64.2553552 38.227285,66.2552448 38.227285,68.6369673 Z M71.1906865,34.7890135 L71.1906865,82 L65.0987773,82 L65.0987773,38.3017193 L71.1906865,34.7890135 Z M83.6040477,27.7636019 L83.6040477,82 L77.5121385,82 L77.5121385,31.2763077 L83.6040477,27.7636019 Z M96.0174089,55.4375636 L96.0174089,82 L89.9254997,82 L89.9254997,55.4375636 L96.0174089,55.4375636 Z M89.0049445,44.392608 C89.0049445,43.3199239 89.3930178,42.3927023 90.1691761,41.6109155 C90.9453343,40.8291288 91.8749052,40.4382412 92.9579167,40.4382412 C94.0589784,40.4382412 94.9975743,40.8291288 95.7737325,41.6109155 C96.5498908,42.3745212 96.9379641,43.3108332 96.9379641,44.4198795 C96.9379641,45.5289259 96.5498908,46.4743283 95.7737325,47.256115 C95.0156245,48.0379018 94.0860536,48.4287893 92.9849919,48.4287893 C91.8839302,48.4287893 90.9453343,48.0379018 90.1691761,47.256115 C89.3930178,46.4743283 89.0049445,45.5198355 89.0049445,44.392608 Z M121.77882,55.4375636 L127.897804,55.4375636 L127.897804,82 L121.77882,82 L121.77882,79.2183075 C119.269843,81.5818489 116.57138,82.7636019 113.68335,82.7636019 C110.037211,82.7636019 107.022874,81.4364024 104.640249,78.7819636 C102.275674,76.0729815 101.093404,72.6913499 101.093404,68.6369673 C101.093404,64.6553091 102.275674,61.3373104 104.640249,58.6828716 C107.004824,56.0284327 109.965011,54.7012333 113.520899,54.7012333 C116.589431,54.7012333 119.342044,55.9738903 121.77882,58.5192426 L121.77882,55.4375636 Z M107.320689,68.6369673 C107.320689,71.1823196 107.997561,73.2549325 109.351325,74.8548682 C110.74119,76.4729851 112.492032,77.2820313 114.603905,77.2820313 C116.860179,77.2820313 118.683221,76.5002563 120.073085,74.9366827 C121.46295,73.3185659 122.157872,71.2641338 122.157872,68.7733248 C122.157872,66.2825158 121.46295,64.2280837 120.073085,62.6099669 C118.683221,61.0282122 116.878229,60.2373468 114.658055,60.2373468 C112.564233,60.2373468 110.813391,61.0373026 109.405476,62.6372384 C108.015611,64.2553552 107.320689,66.2552448 107.320689,68.6369673 Z M134.192181,55.4375636 L140.311166,55.4375636 L140.311166,57.8919982 C142.441088,55.7648109 144.841728,54.7012333 147.513156,54.7012333 C150.581689,54.7012333 152.973303,55.6739069 154.688071,57.6192832 C156.168187,59.2737622 156.908234,61.9736133 156.908234,65.7189173 L156.908234,82 L150.789249,82 L150.789249,67.1643066 C150.789249,64.5462299 150.428251,62.7372389 149.706243,61.737279 C149.002286,60.7191381 147.720741,60.2100753 145.861572,60.2100753 C143.83995,60.2100753 142.404982,60.8827654 141.556623,62.2281659 C140.726314,63.5553853 140.311166,65.8734393 140.311166,69.1823972 L140.311166,82 L134.192181,82 L134.192181,55.4375636 Z M169.484046,61.1645776 L169.484046,82 L163.392137,82 L163.392137,61.1645776 L160.792922,61.1645776 L160.792922,55.4375636 L163.392137,55.4375636 L163.392137,45.7016398 L169.484046,45.7016398 L169.484046,55.4375636 L174.222197,55.4375636 L174.222197,61.1645776 L169.484046,61.1645776 Z M192.294265,59.9646318 L187.258287,62.6645099 C186.464079,61.028212 185.480358,60.2100753 184.307096,60.2100753 C183.74754,60.2100753 183.269217,60.3964286 182.872113,60.7691409 C182.475008,61.1418532 182.276459,61.6190996 182.276459,62.2008944 C182.276459,63.2190354 183.449704,64.2280706 185.796229,65.2280304 C189.027213,66.6279742 191.202229,67.918812 192.321341,69.1005827 C193.440452,70.2823534 194,71.8731748 194,73.8730944 C194,76.4366278 193.061404,78.581964 191.184184,80.3091673 C189.361115,81.9454652 187.159025,82.7636019 184.577847,82.7636019 C180.15555,82.7636019 177.023889,80.5909945 175.182769,76.2457145 L180.381199,73.8185514 C181.103206,75.0912276 181.653729,75.9002738 182.032783,76.2457145 C182.772841,76.9365958 183.657287,77.2820313 184.686148,77.2820313 C186.74387,77.2820313 187.772715,76.3366289 187.772715,74.4457958 C187.772715,73.3549306 186.978519,72.3368049 185.390102,71.3913883 C184.776395,71.0823099 184.162698,70.7823264 183.548991,70.491429 C182.935285,70.2005316 182.312563,69.9005482 181.680806,69.5914697 C179.911887,68.7187774 178.666443,67.8460983 177.944435,66.9734061 C177.023875,65.8643598 176.563602,64.4371658 176.563602,62.6917814 C176.563602,60.3827832 177.348774,58.4737976 178.91914,56.9647674 C180.525607,55.4557371 182.474999,54.7012333 184.767373,54.7012333 C188.142759,54.7012333 190.651698,56.4556819 192.294265,59.9646318 Z" id="alliants"></path>
        </g>
    </g>
</svg>