<?xml version="1.0" encoding="UTF-8"?>
<svg width="533px" height="300px" viewBox="0 0 533 300" version="1.1" xmlns="http://www.w3.org/2000/svg" xmlns:xlink="http://www.w3.org/1999/xlink">
    <!-- Generator: Sketch 48.2 (47327) - http://www.bohemiancoding.com/sketch -->
    <title>presentation-preview--169</title>
    <desc>Created with Sketch.</desc>
    <defs></defs>
    <g id="Page-3" stroke="none" stroke-width="1" fill="none" fill-rule="evenodd">
        <g id="presentation-preview--169">
            <rect id="Rectangle-5" fill="#FF364B" x="0" y="0" width="533.333333" height="300"></rect>
            <path d="M178.704,161 L174.048,161 L174.048,132.68 L167.616,138.056 L164.88,134.84 L174.528,127.016 L178.704,127.016 L178.704,161 Z M200.16,140.696 L200.208,140.792 C200.688002,140.503999 201.327996,140.280001 202.128,140.12 C202.928004,139.959999 203.695996,139.88 204.432,139.88 C205.904007,139.88 207.287994,140.143997 208.584,140.672 C209.880006,141.200003 211.007995,141.935995 211.968,142.88 C212.928005,143.824005 213.679997,144.951993 214.224,146.264 C214.768003,147.576007 215.04,148.999992 215.04,150.536 C215.04,152.232008 214.744003,153.775993 214.152,155.168 C213.559997,156.560007 212.736005,157.751995 211.68,158.744 C210.623995,159.736005 209.384007,160.503997 207.96,161.048 C206.535993,161.592003 204.992008,161.864 203.328,161.864 C201.631992,161.864 200.064007,161.584003 198.624,161.024 C197.183993,160.463997 195.944005,159.688005 194.904,158.696 C193.863995,157.703995 193.048003,156.520007 192.456,155.144 C191.863997,153.767993 191.568,152.280008 191.568,150.68 C191.568,148.823991 191.871997,147.144008 192.48,145.64 C193.088003,144.135992 193.887995,142.600008 194.88,141.032 L203.76,127.016 L209.28,127.016 L200.16,140.696 Z M196.272,150.728 C196.272,151.720005 196.439998,152.655996 196.776,153.536 C197.112002,154.416004 197.591997,155.175997 198.216,155.816 C198.840003,156.456003 199.583996,156.967998 200.448,157.352 C201.312004,157.736002 202.271995,157.928 203.328,157.928 C204.384005,157.928 205.335996,157.752002 206.184,157.4 C207.032004,157.047998 207.767997,156.544003 208.392,155.888 C209.016003,155.231997 209.495998,154.464004 209.832,153.584 C210.168002,152.703996 210.336,151.736005 210.336,150.68 C210.336,149.655995 210.168002,148.712004 209.832,147.848 C209.495998,146.983996 209.032003,146.232003 208.44,145.592 C207.847997,144.951997 207.120004,144.456002 206.256,144.104 C205.391996,143.751998 204.432005,143.576 203.376,143.576 C202.319995,143.576 201.352004,143.751998 200.472,144.104 C199.591996,144.456002 198.840003,144.951997 198.216,145.592 C197.591997,146.232003 197.112002,146.983996 196.776,147.848 C196.439998,148.712004 196.272,149.671995 196.272,150.728 Z M228.048,141.08 C228.048,141.944004 227.744003,142.687997 227.136,143.312 C226.527997,143.936003 225.760005,144.248 224.832,144.248 C223.935996,144.248 223.176003,143.944003 222.552,143.336 C221.927997,142.727997 221.616,141.992004 221.616,141.128 C221.616,140.295996 221.919997,139.560003 222.528,138.92 C223.136003,138.279997 223.903995,137.96 224.832,137.96 C225.760005,137.96 226.527997,138.271997 227.136,138.896 C227.744003,139.520003 228.048,140.247996 228.048,141.08 Z M228.048,158.12 C228.048,158.952004 227.744003,159.687997 227.136,160.328 C226.527997,160.968003 225.760005,161.288 224.832,161.288 C223.935996,161.288 223.176003,160.976003 222.552,160.352 C221.927997,159.727997 221.616,159.000004 221.616,158.168 C221.616,157.303996 221.919997,156.560003 222.528,155.936 C223.136003,155.311997 223.903995,155 224.832,155 C225.760005,155 226.527997,155.303997 227.136,155.912 C227.744003,156.520003 228.048,157.255996 228.048,158.12 Z M249.552,147.272 L249.504,147.224 C249.023998,147.512001 248.368004,147.735999 247.536,147.896 C247.151998,147.96 246.760002,148.016 246.36,148.064 C245.959998,148.112 245.584002,148.136 245.232,148.136 C243.727992,148.136 242.336006,147.872003 241.056,147.344 C239.775994,146.815997 238.656005,146.080005 237.696,145.136 C236.735995,144.191995 235.984003,143.064007 235.44,141.752 C234.895997,140.439993 234.624,139.016008 234.624,137.48 C234.624,135.783992 234.919997,134.240007 235.512,132.848 C236.104003,131.455993 236.927995,130.264005 237.984,129.272 C239.040005,128.279995 240.287993,127.512003 241.728,126.968 C243.168007,126.423997 244.719992,126.152 246.384,126.152 C248.048008,126.152 249.599993,126.431997 251.04,126.992 C252.480007,127.552003 253.719995,128.327995 254.76,129.32 C255.800005,130.312005 256.615997,131.495993 257.208,132.872 C257.800003,134.248007 258.096,135.735992 258.096,137.336 C258.096,139.192009 257.792003,140.871992 257.184,142.376 C256.575997,143.880008 255.792005,145.415992 254.832,146.984 L245.952,161 L240.432,161 L249.552,147.272 Z M253.44,137.288 C253.44,136.295995 253.272002,135.360004 252.936,134.48 C252.599998,133.599996 252.120003,132.832003 251.496,132.176 C250.871997,131.519997 250.128004,131.000002 249.264,130.616 C248.399996,130.231998 247.440005,130.04 246.384,130.04 C245.327995,130.04 244.368004,130.223998 243.504,130.592 C242.639996,130.960002 241.896003,131.463997 241.272,132.104 C240.647997,132.744003 240.168002,133.511996 239.832,134.408 C239.495998,135.304004 239.328,136.279995 239.328,137.336 C239.328,138.360005 239.495998,139.303996 239.832,140.168 C240.168002,141.032004 240.639997,141.783997 241.248,142.424 C241.856003,143.064003 242.591996,143.559998 243.456,143.912 C244.320004,144.264002 245.279995,144.44 246.336,144.44 C247.392005,144.44 248.359996,144.264002 249.24,143.912 C250.120004,143.559998 250.871997,143.064003 251.496,142.424 C252.120003,141.783997 252.599998,141.032004 252.936,140.168 C253.272002,139.303996 253.44,138.344005 253.44,137.288 Z M276.48,143.144 C276.48,142.535997 276.464,141.752005 276.432,140.792 C276.4,139.831995 276.352,138.984004 276.288,138.248 L280.56,138.248 C280.624,138.824003 280.672,139.487996 280.704,140.24 C280.736,140.992004 280.752,141.607998 280.752,142.088 L280.896,142.088 C281.536003,140.743993 282.471994,139.664004 283.704,138.848 C284.936006,138.031996 286.319992,137.624 287.856,137.624 C288.560004,137.624 289.151998,137.687999 289.632,137.816 L289.44,141.992 C288.799997,141.831999 288.112004,141.752 287.376,141.752 C286.287995,141.752 285.344004,141.951998 284.544,142.352 C283.743996,142.752002 283.080003,143.287997 282.552,143.96 C282.023997,144.632003 281.632001,145.407996 281.376,146.288 C281.119999,147.168004 280.992,148.087995 280.992,149.048 L280.992,161 L276.48,161 L276.48,143.144 Z M308.016,146.264 C308.016,144.567992 307.504005,143.312004 306.48,142.496 C305.455995,141.679996 304.096008,141.272 302.4,141.272 C301.119994,141.272 299.912006,141.519998 298.776,142.016 C297.639994,142.512002 296.688004,143.143996 295.92,143.912 L293.52,141.032 C294.640006,139.975995 296.007992,139.144003 297.624,138.536 C299.240008,137.927997 300.975991,137.624 302.832,137.624 C304.464008,137.624 305.879994,137.855998 307.08,138.32 C308.280006,138.784002 309.263996,139.415996 310.032,140.216 C310.800004,141.016004 311.375998,141.959995 311.76,143.048 C312.144002,144.136005 312.336,145.303994 312.336,146.552 L312.336,156.488 C312.336,157.256004 312.36,158.063996 312.408,158.912 C312.456,159.760004 312.543999,160.455997 312.672,161 L308.592,161 C308.335999,159.911995 308.208,158.824005 308.208,157.736 L308.064,157.736 C307.231996,158.952006 306.184006,159.895997 304.92,160.568 C303.655994,161.240003 302.160009,161.576 300.432,161.576 C299.535996,161.576 298.600005,161.456001 297.624,161.216 C296.647995,160.975999 295.760004,160.584003 294.96,160.04 C294.159996,159.495997 293.496003,158.776004 292.968,157.88 C292.439997,156.983996 292.176,155.880007 292.176,154.568 C292.176,152.839991 292.639995,151.472005 293.568,150.464 C294.496005,149.455995 295.711992,148.688003 297.216,148.16 C298.720008,147.631997 300.415991,147.288001 302.304,147.128 C304.192009,146.967999 306.09599,146.888 308.016,146.888 L308.016,146.264 Z M306.912,150.152 C305.791994,150.152 304.632006,150.2 303.432,150.296 C302.231994,150.392 301.144005,150.583999 300.168,150.872 C299.191995,151.160001 298.384003,151.591997 297.744,152.168 C297.103997,152.744003 296.784,153.511995 296.784,154.472 C296.784,155.144003 296.919999,155.703998 297.192,156.152 C297.464001,156.600002 297.823998,156.967999 298.272,157.256 C298.720002,157.544001 299.215997,157.743999 299.76,157.856 C300.304003,157.968001 300.863997,158.024 301.44,158.024 C303.552011,158.024 305.175994,157.392006 306.312,156.128 C307.448006,154.863994 308.016,153.27201 308.016,151.352 L308.016,150.152 L306.912,150.152 Z M331.008,141.944 L324.96,141.944 L324.96,153.8 C324.96,155.176007 325.215997,156.159997 325.728,156.752 C326.240003,157.344003 327.055994,157.64 328.176,157.64 C328.592002,157.64 329.039998,157.592 329.52,157.496 C330.000002,157.4 330.431998,157.256001 330.816,157.064 L330.96,160.76 C330.415997,160.952001 329.816003,161.103999 329.16,161.216 C328.503997,161.328001 327.824004,161.384 327.12,161.384 C324.975989,161.384 323.336006,160.792006 322.2,159.608 C321.063994,158.423994 320.496,156.648012 320.496,154.28 L320.496,141.944 L316.128,141.944 L316.128,138.248 L320.496,138.248 L320.496,131.72 L324.96,131.72 L324.96,138.248 L331.008,138.248 L331.008,141.944 Z M340.224,161 L335.712,161 L335.712,138.248 L340.224,138.248 L340.224,161 Z M340.992,130.04 C340.992,130.872004 340.696003,131.559997 340.104,132.104 C339.511997,132.648003 338.800004,132.92 337.968,132.92 C337.135996,132.92 336.432003,132.640003 335.856,132.08 C335.279997,131.519997 334.992,130.840004 334.992,130.04 C334.992,129.207996 335.279997,128.512003 335.856,127.952 C336.432003,127.391997 337.135996,127.112 337.968,127.112 C338.800004,127.112 339.511997,127.391997 340.104,127.952 C340.696003,128.512003 340.992,129.207996 340.992,130.04 Z M371.136,149.576 C371.136,151.336009 370.824003,152.951993 370.2,154.424 C369.575997,155.896007 368.712006,157.167995 367.608,158.24 C366.503994,159.312005 365.200008,160.143997 363.696,160.736 C362.191992,161.328003 360.576009,161.624 358.848,161.624 C357.119991,161.624 355.504008,161.328003 354,160.736 C352.495992,160.143997 351.200005,159.312005 350.112,158.24 C349.023995,157.167995 348.168003,155.896007 347.544,154.424 C346.919997,152.951993 346.608,151.336009 346.608,149.576 C346.608,147.815991 346.919997,146.208007 347.544,144.752 C348.168003,143.295993 349.023995,142.040005 350.112,140.984 C351.200005,139.927995 352.495992,139.104003 354,138.512 C355.504008,137.919997 357.119991,137.624 358.848,137.624 C360.576009,137.624 362.191992,137.919997 363.696,138.512 C365.200008,139.104003 366.503994,139.927995 367.608,140.984 C368.712006,142.040005 369.575997,143.295993 370.2,144.752 C370.824003,146.208007 371.136,147.815991 371.136,149.576 Z M366.432,149.576 C366.432,148.487995 366.264002,147.448005 365.928,146.456 C365.591998,145.463995 365.104003,144.592004 364.464,143.84 C363.823997,143.087996 363.032005,142.488002 362.088,142.04 C361.143995,141.591998 360.064006,141.368 358.848,141.368 C357.631994,141.368 356.552005,141.591998 355.608,142.04 C354.663995,142.488002 353.872003,143.087996 353.232,143.84 C352.591997,144.592004 352.104002,145.463995 351.768,146.456 C351.431998,147.448005 351.264,148.487995 351.264,149.576 C351.264,150.664005 351.431998,151.703995 351.768,152.696 C352.104002,153.688005 352.591997,154.567996 353.232,155.336 C353.872003,156.104004 354.663995,156.711998 355.608,157.16 C356.552005,157.608002 357.631994,157.832 358.848,157.832 C360.064006,157.832 361.143995,157.608002 362.088,157.16 C363.032005,156.711998 363.823997,156.104004 364.464,155.336 C365.104003,154.567996 365.591998,153.688005 365.928,152.696 C366.264002,151.703995 366.432,150.664005 366.432,149.576 Z" id="16:9-ratio" fill="#FFFFFF"></path>
        </g>
    </g>
</svg>