<?xml version="1.0" encoding="UTF-8"?>
<svg width="400px" height="300px" viewBox="0 0 400 300" version="1.1" xmlns="http://www.w3.org/2000/svg" xmlns:xlink="http://www.w3.org/1999/xlink">
    <!-- Generator: Sketch 48.2 (47327) - http://www.bohemiancoding.com/sketch -->
    <title>presentation-preview--43</title>
    <desc>Created with Sketch.</desc>
    <defs></defs>
    <g id="Page-3" stroke="none" stroke-width="1" fill="none" fill-rule="evenodd">
        <g id="presentation-preview--43">
            <rect id="Rectangle-5" fill="#2DDAAE" x="0" y="0" width="400" height="300"></rect>
            <path d="M129.44,155.384 L134.336,155.384 L134.336,159.368 L129.44,159.368 L129.44,167 L124.928,167 L124.928,159.368 L109.28,159.368 L109.28,155.144 L123.728,133.016 L129.44,133.016 L129.44,155.384 Z M124.928,138.344 L124.832,138.344 L114.08,155.384 L124.928,155.384 L124.928,138.344 Z M146.768,147.08 C146.768,147.944004 146.464003,148.687997 145.856,149.312 C145.247997,149.936003 144.480005,150.248 143.552,150.248 C142.655996,150.248 141.896003,149.944003 141.272,149.336 C140.647997,148.727997 140.336,147.992004 140.336,147.128 C140.336,146.295996 140.639997,145.560003 141.248,144.92 C141.856003,144.279997 142.623995,143.96 143.552,143.96 C144.480005,143.96 145.247997,144.271997 145.856,144.896 C146.464003,145.520003 146.768,146.247996 146.768,147.08 Z M146.768,164.12 C146.768,164.952004 146.464003,165.687997 145.856,166.328 C145.247997,166.968003 144.480005,167.288 143.552,167.288 C142.655996,167.288 141.896003,166.976003 141.272,166.352 C140.647997,165.727997 140.336,165.000004 140.336,164.168 C140.336,163.303996 140.639997,162.560003 141.248,161.936 C141.856003,161.311997 142.623995,161 143.552,161 C144.480005,161 145.247997,161.303997 145.856,161.912 C146.464003,162.520003 146.768,163.255996 146.768,164.12 Z M160.976,147.32 L162.464,147.32 C163.424005,147.32 164.359995,147.232001 165.272,147.056 C166.184005,146.879999 166.991996,146.576002 167.696,146.144 C168.400004,145.711998 168.967998,145.128004 169.4,144.392 C169.832002,143.655996 170.048,142.744005 170.048,141.656 C170.048,140.791996 169.888002,140.016003 169.568,139.328 C169.247998,138.639997 168.808003,138.056002 168.248,137.576 C167.687997,137.095998 167.048004,136.720001 166.328,136.448 C165.607996,136.175999 164.848004,136.04 164.048,136.04 C162.607993,136.04 161.384005,136.407996 160.376,137.144 C159.367995,137.880004 158.608003,138.903993 158.096,140.216 L153.872,138.728 C154.704004,136.67999 156.039991,135.072006 157.88,133.904 C159.720009,132.735994 161.839988,132.152 164.24,132.152 C165.648007,132.152 166.983994,132.351998 168.248,132.752 C169.512006,133.152002 170.623995,133.735996 171.584,134.504 C172.544005,135.272004 173.303997,136.231994 173.864,137.384 C174.424003,138.536006 174.704,139.863992 174.704,141.368 C174.704,142.328005 174.552002,143.223996 174.248,144.056 C173.943998,144.888004 173.528003,145.639997 173,146.312 C172.471997,146.984003 171.840004,147.559998 171.104,148.04 C170.367996,148.520002 169.568004,148.871999 168.704,149.096 L168.704,149.192 C169.696005,149.384001 170.615996,149.719998 171.464,150.2 C172.312004,150.680002 173.039997,151.279996 173.648,152 C174.256003,152.720004 174.735998,153.543995 175.088,154.472 C175.440002,155.400005 175.616,156.407995 175.616,157.496 C175.616,159.192008 175.296003,160.687994 174.656,161.984 C174.015997,163.280006 173.168005,164.359996 172.112,165.224 C171.055995,166.088004 169.840007,166.743998 168.464,167.192 C167.087993,167.640002 165.680007,167.864 164.24,167.864 C161.551987,167.864 159.18401,167.256006 157.136,166.04 C155.08799,164.823994 153.600005,162.936013 152.672,160.376 L156.992,158.936 C157.504003,160.408007 158.375994,161.607995 159.608,162.536 C160.840006,163.464005 162.351991,163.928 164.144,163.928 C165.008004,163.928 165.847996,163.792001 166.664,163.52 C167.480004,163.247999 168.207997,162.840003 168.848,162.296 C169.488003,161.751997 169.999998,161.080004 170.384,160.28 C170.768002,159.479996 170.96,158.536005 170.96,157.448 C170.96,156.263994 170.704003,155.272004 170.192,154.472 C169.679997,153.671996 169.016004,153.024002 168.2,152.528 C167.383996,152.031998 166.464005,151.680001 165.44,151.472 C164.415995,151.263999 163.408005,151.16 162.416,151.16 L160.976,151.16 L160.976,147.32 Z M195.2,149.144 C195.2,148.535997 195.184,147.752005 195.152,146.792 C195.12,145.831995 195.072,144.984004 195.008,144.248 L199.28,144.248 C199.344,144.824003 199.392,145.487996 199.424,146.24 C199.456,146.992004 199.472,147.607998 199.472,148.088 L199.616,148.088 C200.256003,146.743993 201.191994,145.664004 202.424,144.848 C203.656006,144.031996 205.039992,143.624 206.576,143.624 C207.280004,143.624 207.871998,143.687999 208.352,143.816 L208.16,147.992 C207.519997,147.831999 206.832004,147.752 206.096,147.752 C205.007995,147.752 204.064004,147.951998 203.264,148.352 C202.463996,148.752002 201.800003,149.287997 201.272,149.96 C200.743997,150.632003 200.352001,151.407996 200.096,152.288 C199.839999,153.168004 199.712,154.087995 199.712,155.048 L199.712,167 L195.2,167 L195.2,149.144 Z M226.736,152.264 C226.736,150.567992 226.224005,149.312004 225.2,148.496 C224.175995,147.679996 222.816008,147.272 221.12,147.272 C219.839994,147.272 218.632006,147.519998 217.496,148.016 C216.359994,148.512002 215.408004,149.143996 214.64,149.912 L212.24,147.032 C213.360006,145.975995 214.727992,145.144003 216.344,144.536 C217.960008,143.927997 219.695991,143.624 221.552,143.624 C223.184008,143.624 224.599994,143.855998 225.8,144.32 C227.000006,144.784002 227.983996,145.415996 228.752,146.216 C229.520004,147.016004 230.095998,147.959995 230.48,149.048 C230.864002,150.136005 231.056,151.303994 231.056,152.552 L231.056,162.488 C231.056,163.256004 231.08,164.063996 231.128,164.912 C231.176,165.760004 231.263999,166.455997 231.392,167 L227.312,167 C227.055999,165.911995 226.928,164.824005 226.928,163.736 L226.784,163.736 C225.951996,164.952006 224.904006,165.895997 223.64,166.568 C222.375994,167.240003 220.880009,167.576 219.152,167.576 C218.255996,167.576 217.320005,167.456001 216.344,167.216 C215.367995,166.975999 214.480004,166.584003 213.68,166.04 C212.879996,165.495997 212.216003,164.776004 211.688,163.88 C211.159997,162.983996 210.896,161.880007 210.896,160.568 C210.896,158.839991 211.359995,157.472005 212.288,156.464 C213.216005,155.455995 214.431992,154.688003 215.936,154.16 C217.440008,153.631997 219.135991,153.288001 221.024,153.128 C222.912009,152.967999 224.81599,152.888 226.736,152.888 L226.736,152.264 Z M225.632,156.152 C224.511994,156.152 223.352006,156.2 222.152,156.296 C220.951994,156.392 219.864005,156.583999 218.888,156.872 C217.911995,157.160001 217.104003,157.591997 216.464,158.168 C215.823997,158.744003 215.504,159.511995 215.504,160.472 C215.504,161.144003 215.639999,161.703998 215.912,162.152 C216.184001,162.600002 216.543998,162.967999 216.992,163.256 C217.440002,163.544001 217.935997,163.743999 218.48,163.856 C219.024003,163.968001 219.583997,164.024 220.16,164.024 C222.272011,164.024 223.895994,163.392006 225.032,162.128 C226.168006,160.863994 226.736,159.27201 226.736,157.352 L226.736,156.152 L225.632,156.152 Z M249.728,147.944 L243.68,147.944 L243.68,159.8 C243.68,161.176007 243.935997,162.159997 244.448,162.752 C244.960003,163.344003 245.775994,163.64 246.896,163.64 C247.312002,163.64 247.759998,163.592 248.24,163.496 C248.720002,163.4 249.151998,163.256001 249.536,163.064 L249.68,166.76 C249.135997,166.952001 248.536003,167.103999 247.88,167.216 C247.223997,167.328001 246.544004,167.384 245.84,167.384 C243.695989,167.384 242.056006,166.792006 240.92,165.608 C239.783994,164.423994 239.216,162.648012 239.216,160.28 L239.216,147.944 L234.848,147.944 L234.848,144.248 L239.216,144.248 L239.216,137.72 L243.68,137.72 L243.68,144.248 L249.728,144.248 L249.728,147.944 Z M258.944,167 L254.432,167 L254.432,144.248 L258.944,144.248 L258.944,167 Z M259.712,136.04 C259.712,136.872004 259.416003,137.559997 258.824,138.104 C258.231997,138.648003 257.520004,138.92 256.688,138.92 C255.855996,138.92 255.152003,138.640003 254.576,138.08 C253.999997,137.519997 253.712,136.840004 253.712,136.04 C253.712,135.207996 253.999997,134.512003 254.576,133.952 C255.152003,133.391997 255.855996,133.112 256.688,133.112 C257.520004,133.112 258.231997,133.391997 258.824,133.952 C259.416003,134.512003 259.712,135.207996 259.712,136.04 Z M289.856,155.576 C289.856,157.336009 289.544003,158.951993 288.92,160.424 C288.295997,161.896007 287.432006,163.167995 286.328,164.24 C285.223994,165.312005 283.920008,166.143997 282.416,166.736 C280.911992,167.328003 279.296009,167.624 277.568,167.624 C275.839991,167.624 274.224008,167.328003 272.72,166.736 C271.215992,166.143997 269.920005,165.312005 268.832,164.24 C267.743995,163.167995 266.888003,161.896007 266.264,160.424 C265.639997,158.951993 265.328,157.336009 265.328,155.576 C265.328,153.815991 265.639997,152.208007 266.264,150.752 C266.888003,149.295993 267.743995,148.040005 268.832,146.984 C269.920005,145.927995 271.215992,145.104003 272.72,144.512 C274.224008,143.919997 275.839991,143.624 277.568,143.624 C279.296009,143.624 280.911992,143.919997 282.416,144.512 C283.920008,145.104003 285.223994,145.927995 286.328,146.984 C287.432006,148.040005 288.295997,149.295993 288.92,150.752 C289.544003,152.208007 289.856,153.815991 289.856,155.576 Z M285.152,155.576 C285.152,154.487995 284.984002,153.448005 284.648,152.456 C284.311998,151.463995 283.824003,150.592004 283.184,149.84 C282.543997,149.087996 281.752005,148.488002 280.808,148.04 C279.863995,147.591998 278.784006,147.368 277.568,147.368 C276.351994,147.368 275.272005,147.591998 274.328,148.04 C273.383995,148.488002 272.592003,149.087996 271.952,149.84 C271.311997,150.592004 270.824002,151.463995 270.488,152.456 C270.151998,153.448005 269.984,154.487995 269.984,155.576 C269.984,156.664005 270.151998,157.703995 270.488,158.696 C270.824002,159.688005 271.311997,160.567996 271.952,161.336 C272.592003,162.104004 273.383995,162.711998 274.328,163.16 C275.272005,163.608002 276.351994,163.832 277.568,163.832 C278.784006,163.832 279.863995,163.608002 280.808,163.16 C281.752005,162.711998 282.543997,162.104004 283.184,161.336 C283.824003,160.567996 284.311998,159.688005 284.648,158.696 C284.984002,157.703995 285.152,156.664005 285.152,155.576 Z" id="4:3-ratio" fill="#FFFFFF"></path>
        </g>
    </g>
</svg>